<?xml version="1.0" encoding="UTF-8"?>
<svg width="54px" height="54px" viewBox="0 0 54 54" version="1.1" xmlns="http://www.w3.org/2000/svg" xmlns:xlink="http://www.w3.org/1999/xlink">
    <!-- Generator: Sketch 59.1 (86144) - https://sketch.com -->
    <title>List</title>
    <desc>Created with Sketch.</desc>
    <g id="Page-1" stroke="none" stroke-width="1" fill="none" fill-rule="evenodd">
        <g id="Home-2" transform="translate(-318.000000, -2476.000000)" fill="#DAA519" fill-rule="nonzero" stroke="#DAA519" stroke-width="0.3">
            <g id="Group-15" transform="translate(276.000000, 2468.000000)">
                <g id="List" transform="translate(43.000000, 9.000000)">
                    <path d="M26,0 C11.6503519,0 0,11.650496 0,26 C0,40.349712 11.6503519,52 26,52 C40.3496309,52 52,40.349712 52,26 C52,11.650496 40.3496309,0 26,0 Z M26,1.625 C39.4584819,1.625 50.375,12.541568 50.375,26 C50.375,39.45864 39.4584819,50.31 26,50.31 C12.5415,50.31 1.625,39.45864 1.625,26 C1.625,12.541568 12.5415,1.625 26,1.625 Z M18.72,18.525 L15.145,21.84 L13.39,20.085 L11.895,21.58 L14.885,24.505 L15.08,24.7 L20.15,20.02 L18.72,18.525 Z M22.88,18.72 L22.88,20.8 L39.52,20.8 L39.52,18.72 L22.88,18.72 Z M22.88,22.88 L22.88,24.96 L39.52,24.96 L39.52,22.88 L22.88,22.88 Z M18.72,26.845 L15.145,30.16 L13.39,28.405 L11.895,29.9 L14.885,32.825 L15.08,33.02 L20.15,28.34 L18.72,26.845 Z M22.88,27.04 L22.88,29.12 L39.52,29.12 L39.52,27.04 L22.88,27.04 Z M22.88,31.2 L22.88,33.28 L39.52,33.28 L39.52,31.2 L22.88,31.2 Z" id="Shape"></path>
                </g>
            </g>
        </g>
    </g>
</svg>