<?xml version="1.0" encoding="UTF-8"?>
<svg width="52px" height="48px" viewBox="0 0 52 48" version="1.1" xmlns="http://www.w3.org/2000/svg" xmlns:xlink="http://www.w3.org/1999/xlink">
    <!-- Generator: Sketch 59.1 (86144) - https://sketch.com -->
    <title>Bag</title>
    <desc>Created with Sketch.</desc>
    <g id="Page-1" stroke="none" stroke-width="1" fill="none" fill-rule="evenodd" stroke-linecap="round" stroke-linejoin="round">
        <g id="Home-2" transform="translate(-340.000000, -2720.000000)" stroke="#DAA519" stroke-width="2">
            <g id="Group-15" transform="translate(276.000000, 2468.000000)">
                <g id="Bag" transform="translate(64.000000, 253.000000)">
                    <g id="Group">
                        <path d="M50.9579203,10.7328 C50.9579203,10.1751772 50.7368745,9.64029876 50.3426731,9.24590233 C49.9484718,8.85150591 49.4137029,8.62991974 48.85608,8.62991974 L3.1408,8.62991974 C2.58299696,8.62991974 2.04796079,8.85110807 1.65353443,9.24553443 C1.25910807,9.63996079 1.03791974,10.174997 1.03791974,10.7328 L1.03791974,41.7508 C1.03791974,43.5543411 2.49997892,45.0164 4.30352,45.0164 L47.69232,45.0164 C49.4958611,45.0164 50.9579203,43.5543411 50.9579203,41.7508 L50.9579203,10.7328 Z" id="Path"></path>
                        <path d="M33.6024,8.62992 L18.39448,8.62992 L18.39448,2.62912 C18.39448,1.58808 19.23792,0.7436 20.28,0.7436 L31.71896,0.7436 C32.75896,0.7436 33.60448,1.58808 33.60448,2.62912 L33.60448,8.62992 L33.6024,8.62992 Z" id="Path"></path>
                    </g>
                    <g id="Group" transform="translate(8.320000, 15.600000)">
                        <line x1="34.44688" y1="29.41328" x2="34.44688" y2="0.10608" id="Path"></line>
                        <line x1="0.90688" y1="29.41328" x2="0.90688" y2="0.10608" id="Path"></line>
                    </g>
                    <path d="M30.44288,19.90768 C41.29008,18.15008 50.96208,10.73488 50.96208,10.73488" id="Path"></path>
                    <path d="M1.04208,10.73488 C1.04208,10.73488 10.72448,18.15008 21.55088,19.90768" id="Path"></path>
                    <path d="M30.54688,20.29248 C30.54688,21.49576 28.50848,22.46296 26.00208,22.46296 C23.48528,22.46296 21.44688,21.49576 21.44688,20.29248 C21.44688,20.13128 21.47808,19.98256 21.55088,19.83384 C21.99808,18.85416 23.81808,18.122 26.00208,18.122 C28.17568,18.122 29.99568,18.85416 30.44288,19.83384 C30.51568,19.98256 30.54688,20.13128 30.54688,20.29248 L30.54688,20.29248 Z" id="Path"></path>
                </g>
            </g>
        </g>
    </g>
</svg>