<?xml version="1.0" encoding="UTF-8"?>
<svg width="50px" height="46px" viewBox="0 0 50 46" version="1.1" xmlns="http://www.w3.org/2000/svg" xmlns:xlink="http://www.w3.org/1999/xlink">
    <!-- Generator: Sketch 59.1 (86144) - https://sketch.com -->
    <title>Graph</title>
    <desc>Created with Sketch.</desc>
    <g id="Page-1" stroke="none" stroke-width="1" fill="none" fill-rule="evenodd">
        <g id="Home-2" transform="translate(-962.000000, -2480.000000)" fill="#DAA519" fill-rule="nonzero">
            <g id="Group-15" transform="translate(276.000000, 2468.000000)">
                <g id="Graph" transform="translate(685.000000, 12.000000)">
                    <g id="graph" transform="translate(0.935200, 0.203125)">
                        <path d="M45.2231942,0.0189979283 C43.5195733,0.0179234075 41.9428455,0.919326354 41.0794404,2.38795058 C40.2160352,3.85657482 40.1951506,5.67265895 41.0245541,7.16075016 L35.8346526,11.5102369 C34.8915738,10.2801657 33.4125711,9.58117189 31.8634602,9.63340544 C30.3143493,9.68563899 28.8857902,10.4826711 28.0277113,11.7734745 L22.1657527,7.99578569 C22.177999,7.85569749 22.1855527,7.71423588 22.1855527,7.57094305 C22.1875988,5.55261631 20.928425,3.7480264 19.0333908,3.05340964 C17.1383566,2.35879288 15.0112233,2.92214624 13.7084159,4.46368441 C12.4056085,6.00522259 12.2047068,8.19650118 13.2054872,9.94923779 L7.19909129,15.8205814 C4.98023514,14.6113267 2.20415821,15.320898 0.83771471,17.446563 C-0.528728788,19.5722279 -0.0216323397,22.392325 1.99972555,23.9088117 C4.02108343,25.4252984 6.87045331,25.1233285 8.52905282,23.2168482 C10.1876523,21.3103679 10.0923882,18.4466257 8.31075523,16.6545868 L14.0562026,11.0383549 C15.2010195,12.1383164 16.8156162,12.6011488 18.3693124,12.2747299 C19.9230086,11.948311 21.2148448,10.8748608 21.8202247,9.40719718 L27.432222,13.0238533 C26.8121063,15.0334444 27.570354,17.2128319 29.3039102,18.4035387 C31.0374665,19.5942455 33.3437893,19.5197824 34.9969277,18.2197311 C36.650066,16.9196797 37.2661514,14.6959198 36.517697,12.730515 L41.8590174,8.25398747 C43.4072618,9.77344536 45.7816,10.0670596 47.6533423,8.97052235 C49.5250846,7.87398514 50.4299578,5.65928526 49.8615911,3.56577807 C49.2932243,1.47227087 47.3925972,0.0189979283 45.2233087,0.0198000476 L45.2231942,0.0189979283 Z M4.90640601,23.4759894 C3.51792795,23.4759894 2.2661448,22.6396662 1.73477587,21.3568886 C1.20340693,20.074111 1.49709953,18.5975543 2.47890178,17.615752 C3.46070403,16.6339498 4.93726071,16.3402572 6.22003832,16.8716261 C7.50281592,17.4029951 8.33913912,18.6547782 8.33913912,20.0432563 C8.33699464,21.9382134 6.80136318,23.4738449 4.90640601,23.4759894 L4.90640601,23.4759894 Z M17.3792915,11.0033328 C15.9908238,11.0033328 14.7390479,10.167022 14.2076723,8.88425844 C13.6762966,7.60149489 13.9699683,6.12494718 14.9517468,5.14313593 C15.9335253,4.16132468 17.4100632,3.86760383 18.6928445,4.3989367 C19.9756257,4.93026957 20.8120246,6.1820176 20.8120246,7.57048525 C20.8098802,9.465461 19.2742672,11.0011253 17.3792915,11.0033328 Z M32.0257186,17.8693713 C30.1298724,17.8693713 28.5929855,16.3324843 28.5929855,14.4366382 C28.5929855,12.540792 30.1298724,11.0039051 32.0257186,11.0039051 C33.9215647,11.0039051 35.4584517,12.540792 35.4584517,14.4366382 C35.4563072,16.3315953 33.9206758,17.8672268 32.0257186,17.8693713 Z M45.2231942,8.25787881 C43.3273481,8.25787881 41.7904611,6.72099185 41.7904611,4.8251457 C41.7904611,2.92929956 43.3273481,1.3924126 45.2231942,1.3924126 C47.1190404,1.3924126 48.6559273,2.92929956 48.6559273,4.8251457 C48.6537829,6.72010286 47.1181514,8.25573433 45.2231942,8.25787881 Z" id="Shape"></path>
                        <path d="M23.0046796,21.0590102 C23.0046796,20.6797524 22.6972304,20.3723033 22.3179727,20.3723033 L15.2220019,20.3723033 C14.8427442,20.3723033 14.5352951,20.6797524 14.5352951,21.0590102 L14.5352951,44.4070431 C14.5352951,44.7863009 14.8427442,45.09375 15.2220019,45.09375 L22.3179727,45.09375 C22.6972304,45.09375 23.0046796,44.7863009 23.0046796,44.4070431 L23.0046796,21.0590102 Z M21.6312659,43.7203363 L15.9087088,43.7203363 L15.9087088,21.745717 L21.6312659,21.745717 L21.6312659,43.7203363 Z" id="Shape"></path>
                        <path d="M9.84279822,31.7029664 C9.84279822,31.3237086 9.53534909,31.0162595 9.15609137,31.0162595 L2.06012056,31.0162595 C1.68086284,31.0162595 1.37341371,31.3237086 1.37341371,31.7029664 L1.37341371,44.4070431 C1.37341371,44.7863009 1.68086284,45.09375 2.06012056,45.09375 L9.15609137,45.09375 C9.53534909,45.09375 9.84279822,44.7863009 9.84279822,44.4070431 L9.84279822,31.7029664 Z M8.35493338,43.7203363 L2.74682741,43.7203363 L2.74682741,32.3896732 L8.35493338,32.3896732 L8.35493338,43.7203363 Z" id="Shape"></path>
                        <path d="M36.1665609,27.6971764 C36.1665609,27.3179187 35.8591118,27.0104695 35.4798541,27.0104695 L28.3838832,27.0104695 C28.0046255,27.0104695 27.6971764,27.3179187 27.6971764,27.6971764 L27.6971764,44.4070431 C27.6971764,44.7863009 28.0046255,45.09375 28.3838832,45.09375 L35.4798541,45.09375 C35.8591118,45.09375 36.1665609,44.7863009 36.1665609,44.4070431 L36.1665609,27.6971764 Z M34.7931472,43.7203363 L29.0705901,43.7203363 L29.0705901,28.3838832 L34.7931472,28.3838832 L34.7931472,43.7203363 Z" id="Shape"></path>
                        <path d="M49.4428934,21.0590102 C49.4428934,20.6797524 49.1354443,20.3723033 48.7561865,20.3723033 L41.6602157,20.3723033 C41.280958,20.3723033 40.9735089,20.6797524 40.9735089,21.0590102 L40.9735089,44.4070431 C40.9735089,44.7863009 41.280958,45.09375 41.6602157,45.09375 L48.7561865,45.09375 C49.1354443,45.09375 49.4428934,44.7863009 49.4428934,44.4070431 L49.4428934,21.0590102 Z M47.9550286,43.7203363 L42.3469226,43.7203363 L42.3469226,21.745717 L47.9550286,21.745717 L47.9550286,43.7203363 Z" id="Shape"></path>
                    </g>
                </g>
            </g>
        </g>
    </g>
</svg>