<?xml version="1.0" encoding="UTF-8"?>
<svg width="54px" height="54px" viewBox="0 0 54 54" version="1.1" xmlns="http://www.w3.org/2000/svg" xmlns:xlink="http://www.w3.org/1999/xlink">
    <!-- Generator: Sketch 59.1 (86144) - https://sketch.com -->
    <title>support</title>
    <desc>Created with Sketch.</desc>
    <g id="Page-1" stroke="none" stroke-width="1" fill="none" fill-rule="evenodd">
        <g id="Home-2" transform="translate(-635.000000, -2467.000000)" fill="#DAA519" fill-rule="nonzero" stroke="#000000" stroke-width="0.5">
            <g id="Group-15" transform="translate(276.000000, 2468.000000)">
                <g id="support" transform="translate(360.000000, 0.000000)">
                    <path d="M6.5,42.7142857 L3.71428571,42.7142857 C1.66294236,42.7142857 0,41.0513434 0,39 L0,31.5714286 C0,29.5200852 1.66294236,27.8571429 3.71428571,27.8571429 L6.5,27.8571429 C7.01283584,27.8571429 7.42857143,28.2728784 7.42857143,28.7857143 L7.42857143,41.7857143 C7.42857143,42.2985501 7.01283584,42.7142857 6.5,42.7142857 Z M3.71428571,29.7142857 C2.68861404,29.7142857 1.85714286,30.5457569 1.85714286,31.5714286 L1.85714286,39 C1.85714286,40.0256717 2.68861404,40.8571429 3.71428571,40.8571429 L5.57142857,40.8571429 L5.57142857,29.7142857 L3.71428571,29.7142857 Z" id="Shape"></path>
                    <path d="M9.28571429,45.5 C7.23437093,45.5 5.57142857,43.8370576 5.57142857,41.7857143 L5.57142857,28.7857143 C5.57142857,26.7343709 7.23437093,25.0714286 9.28571429,25.0714286 C11.3370576,25.0714286 13,26.7343709 13,28.7857143 L13,41.7857143 C13,43.8370576 11.3370576,45.5 9.28571429,45.5 Z M9.28571429,26.9285714 C8.26004261,26.9285714 7.42857143,27.7600426 7.42857143,28.7857143 L7.42857143,41.7857143 C7.42857143,42.811386 8.26004261,43.6428571 9.28571429,43.6428571 C10.311386,43.6428571 11.1428571,42.811386 11.1428571,41.7857143 L11.1428571,28.7857143 C11.1428571,27.7600426 10.311386,26.9285714 9.28571429,26.9285714 Z M48.2857143,42.7142857 L45.5,42.7142857 C44.9871642,42.7142857 44.5714286,42.2985501 44.5714286,41.7857143 L44.5714286,28.7857143 C44.5714286,28.2728784 44.9871642,27.8571429 45.5,27.8571429 L48.2857143,27.8571429 C50.3370576,27.8571429 52,29.5200852 52,31.5714286 L52,39 C52,41.0513434 50.3370576,42.7142857 48.2857143,42.7142857 Z M46.4285714,40.8571429 L48.2857143,40.8571429 C49.311386,40.8571429 50.1428571,40.0256717 50.1428571,39 L50.1428571,31.5714286 C50.1428571,30.5457569 49.311386,29.7142857 48.2857143,29.7142857 L46.4285714,29.7142857 L46.4285714,40.8571429 Z" id="Shape"></path>
                    <path d="M42.7142857,45.5 C40.6629424,45.5 39,43.8370576 39,41.7857143 L39,28.7857143 C39,26.7343709 40.6629424,25.0714286 42.7142857,25.0714286 C44.7656291,25.0714286 46.4285714,26.7343709 46.4285714,28.7857143 L46.4285714,41.7857143 C46.4285714,43.8370576 44.7656291,45.5 42.7142857,45.5 Z M42.7142857,26.9285714 C41.688614,26.9285714 40.8571429,27.7600426 40.8571429,28.7857143 L40.8571429,41.7857143 C40.8571429,42.811386 41.688614,43.6428571 42.7142857,43.6428571 C43.7399574,43.6428571 44.5714286,42.811386 44.5714286,41.7857143 L44.5714286,28.7857143 C44.5714286,27.7600426 43.7399574,26.9285714 42.7142857,26.9285714 Z M27.8571429,52 L24.1428571,52 C22.6043496,52 21.3571429,50.7527932 21.3571429,49.2142857 C21.3571429,47.6757782 22.6043496,46.4285714 24.1428571,46.4285714 L27.8571429,46.4285714 C29.3956504,46.4285714 30.6428571,47.6757782 30.6428571,49.2142857 C30.6428571,50.7527932 29.3956504,52 27.8571429,52 Z M24.1428571,48.2857143 C23.6300213,48.2857143 23.2142857,48.7014499 23.2142857,49.2142857 C23.2142857,49.7271216 23.6300213,50.1428571 24.1428571,50.1428571 L27.8571429,50.1428571 C28.3699787,50.1428571 28.7857143,49.7271216 28.7857143,49.2142857 C28.7857143,48.7014499 28.3699787,48.2857143 27.8571429,48.2857143 L24.1428571,48.2857143 Z" id="Shape"></path>
                    <path d="M42.7142857,50.1428571 L29.7142857,50.1428571 C29.2014499,50.1428571 28.7857143,49.7271216 28.7857143,49.2142857 C28.7857143,48.7014499 29.2014499,48.2857143 29.7142857,48.2857143 L42.7142857,48.2857143 C45.2784649,48.2857143 47.3571429,46.2070363 47.3571429,43.6428571 L47.3571429,41.7857143 C47.3571429,41.2728784 47.7728784,40.8571429 48.2857143,40.8571429 C48.7985501,40.8571429 49.2142857,41.2728784 49.2142857,41.7857143 L49.2142857,43.6428571 C49.2142857,47.232708 46.3041366,50.1428571 42.7142857,50.1428571 L42.7142857,50.1428571 Z M47.3571429,29.7142857 C46.844307,29.7142857 46.4285714,29.2985501 46.4285714,28.7857143 L46.4285714,22.2857143 C46.4296226,21.3944286 46.3706799,20.5040829 46.2521429,19.6207143 C46.2090158,19.2889677 46.3461495,18.9594131 46.6118869,18.7561907 C46.8776244,18.5529683 47.2315938,18.5069522 47.5404584,18.6354764 C47.8493229,18.7640006 48.0661587,19.0475391 48.1092857,19.3792857 C48.2327116,20.3430893 48.2916522,21.314058 48.2857143,22.2857143 L48.2857143,28.7857143 C48.2857143,29.2985501 47.8699787,29.7142857 47.3571429,29.7142857 Z M4.64285714,29.7142857 C4.1300213,29.7142857 3.71428571,29.2985501 3.71428571,28.7857143 L3.71428571,22.2857143 C3.714505,21.3136438 3.77964998,20.3426733 3.90928571,19.3792857 C3.95241277,19.0475391 4.16924853,18.7640006 4.47811306,18.6354764 C4.7869776,18.5069522 5.14094703,18.5529682 5.4066845,18.7561907 C5.67242197,18.9594131 5.80955564,19.2889677 5.76642857,19.6207143 C5.6416792,20.5036632 5.57653181,21.3940108 5.57142857,22.2857143 L5.57142857,28.7857143 C5.57142857,29.2985501 5.15569298,29.7142857 4.64285714,29.7142857 Z" id="Shape"></path>
                    <path d="M47.1714286,20.428605 C44.2377477,20.3867296 41.6035274,18.622093 40.4485714,15.925 C37.9120463,10.1702119 32.2015592,6.47006165 25.9126619,6.50635538 C19.6237647,6.54264912 13.9563642,10.3084621 11.4864286,16.0921429 C10.4204329,18.6889674 7.90478043,20.3965397 5.09785714,20.428605 L4.82857143,20.428605 C4.55988261,20.4308529 4.30337887,20.3166337 4.12530784,20.1154134 C3.94723681,19.9141932 3.86505951,19.6457028 3.9,19.3792857 C5.37455835,8.30595571 14.8196374,0.0352382301 25.9907143,0.0352382301 C37.1617912,0.0352382301 46.6068702,8.30595571 48.0814286,19.3792857 C48.1163691,19.6457028 48.0341918,19.9141932 47.8561207,20.1154134 C47.6780497,20.3166337 47.421546,20.4308529 47.1528571,20.428605 L47.1714286,20.428605 Z M26,1.85714286 C16.1780215,1.85641182 7.74581625,8.84554771 5.92428571,18.4971429 C7.65724333,18.170645 9.10736808,16.9895795 9.77785714,15.3585714 C12.0732346,9.96650271 16.8961996,6.06609932 22.6491223,4.94938835 C28.4020449,3.83267738 34.3340003,5.64542234 38.48,9.78714286 C40.0383136,11.3319711 41.2975736,13.1516018 42.1942857,15.1542857 C42.9043716,16.8082732 44.3594382,18.0254261 46.1128571,18.4321429 C45.3355474,14.4156907 43.3760483,10.7230373 40.4857143,7.82785714 C36.6525605,3.9765478 31.4336585,1.82542345 26,1.85714286 Z" id="Shape"></path>
                    <path d="M25.0714286,36.2143013 C24.8246115,36.2157127 24.5873818,36.118816 24.4121429,35.945 C24.2363525,35.7706453 24.137473,35.5333063 24.137473,35.2857143 C24.137473,35.0381223 24.2363525,34.8007833 24.4121429,34.6264286 L26.5478571,32.5 L24.4121429,30.3735714 C24.0480294,30.009458 24.0480294,29.4191134 24.4121429,29.055 C24.7762563,28.6908866 25.3666008,28.6908866 25.7307143,29.055 L28.5164286,31.8407143 C28.6922189,32.015069 28.7910984,32.252408 28.7910984,32.5 C28.7910984,32.747592 28.6922189,32.984931 28.5164286,33.1592857 L25.7307143,35.945 C25.5554754,36.118816 25.3182456,36.2157127 25.0714286,36.2143013 Z" id="Path"></path>
                </g>
            </g>
        </g>
    </g>
</svg>