<?xml version="1.0" encoding="UTF-8"?>
<svg width="23px" height="28px" viewBox="0 0 23 28" version="1.1" xmlns="http://www.w3.org/2000/svg" xmlns:xlink="http://www.w3.org/1999/xlink">
    <!-- Generator: Sketch 59.1 (86144) - https://sketch.com -->
    <title>Building</title>
    <desc>Created with Sketch.</desc>
    <g id="Page-1" stroke="none" stroke-width="1" fill="none" fill-rule="evenodd">
        <g id="Home" transform="translate(-242.000000, -3201.000000)" fill="#000000" fill-rule="nonzero">
            <g id="Group-10" transform="translate(190.000000, 3191.000000)">
                <g id="Building" transform="translate(52.000000, 10.000000)">
                    <path d="M14,3.5 L15.75,3.5 L15.75,5.25 L14,5.25 L14,3.5 Z M17.5,3.5 L19.25,3.5 L19.25,5.25 L17.5,5.25 L17.5,3.5 Z M14,7 L15.75,7 L15.75,8.75 L14,8.75 L14,7 Z M17.5,7 L19.25,7 L19.25,8.75 L17.5,8.75 L17.5,7 Z M14,10.5 L15.75,10.5 L15.75,12.25 L14,12.25 L14,10.5 Z M17.5,10.5 L19.25,10.5 L19.25,12.25 L17.5,12.25 L17.5,10.5 Z M14,14 L15.75,14 L15.75,15.75 L14,15.75 L14,14 Z M17.5,14 L19.25,14 L19.25,15.75 L17.5,15.75 L17.5,14 Z M14,17.5 L15.75,17.5 L15.75,19.25 L14,19.25 L14,17.5 Z M17.5,17.5 L19.25,17.5 L19.25,19.25 L17.5,19.25 L17.5,17.5 Z M21,0 L12.25,0 C11.2835017,0 10.5,0.783501688 10.5,1.75 L10.5,7 L1.75,7 C0.783501688,7 0,7.78350169 0,8.75 L0,26.25 C0,27.2164983 0.783501688,28 1.75,28 L21,28 C21.9664983,28 22.75,27.2164983 22.75,26.25 L22.75,1.75 C22.75,0.783501688 21.9664983,0 21,0 Z M7,26.25 L5.25,26.25 L5.25,22.75 L7,22.75 L7,26.25 Z M8.75,26.25 L8.75,21 L3.5,21 L3.5,26.25 L1.75,26.25 L1.75,8.75 L10.5,8.75 L10.5,26.25 L8.75,26.25 Z M17.5,26.25 L15.75,26.25 L15.75,22.75 L17.5,22.75 L17.5,26.25 Z M21,26.25 L19.25,26.25 L19.25,21 L14,21 L14,26.25 L12.25,26.25 L12.25,1.75 L21,1.75 L21,26.25 Z M3.5,10.5 L5.25,10.5 L5.25,12.25 L3.5,12.25 L3.5,10.5 Z M7,10.5 L8.75,10.5 L8.75,12.25 L7,12.25 L7,10.5 Z M3.5,14 L5.25,14 L5.25,15.75 L3.5,15.75 L3.5,14 Z M7,14 L8.75,14 L8.75,15.75 L7,15.75 L7,14 Z M3.5,17.5 L5.25,17.5 L5.25,19.25 L3.5,19.25 L3.5,17.5 Z M7,17.5 L8.75,17.5 L8.75,19.25 L7,19.25 L7,17.5 Z" id="Shape"></path>
                </g>
            </g>
        </g>
    </g>
</svg>