<?xml version="1.0" encoding="UTF-8"?>
<svg width="60px" height="14px" viewBox="0 0 60 14" version="1.1" xmlns="http://www.w3.org/2000/svg" xmlns:xlink="http://www.w3.org/1999/xlink">
    <!-- Generator: Sketch 59.1 (86144) - https://sketch.com -->
    <title>Group 30</title>
    <desc>Created with Sketch.</desc>
    <g id="Page-1" stroke="none" stroke-width="1" fill="none" fill-rule="evenodd">
        <g id="Home-2" transform="translate(-728.000000, -1003.000000)">
            <g id="Group-30" transform="translate(728.000000, 1003.000000)">
                <rect id="Rectangle" fill="#976502" x="0" y="0" width="60" height="14"></rect>
                <text id="Cheapest" font-family="Montserrat-SemiBold, Montserrat" font-size="6" font-weight="500" fill="#FFFFFF">
                    <tspan x="18" y="9">Cheapest</tspan>
                </text>
                <g id="check" transform="translate(0.000000, 3.000000)">
                    <polygon id="Path" points="0 0 8 0 8 8 0 8"></polygon>
                    <path d="M4.5,1 C2.568,1 1,2.568 1,4.5 C1,6.432 2.568,8 4.5,8 C6.432,8 8,6.432 8,4.5 C8,2.568 6.432,1 4.5,1 Z M4.5,7.3 C2.9565,7.3 1.7,6.0435 1.7,4.5 C1.7,2.9565 2.9565,1.7 4.5,1.7 C6.0435,1.7 7.3,2.9565 7.3,4.5 C7.3,6.0435 6.0435,7.3 4.5,7.3 Z M5.858,3.2015 L3.8,5.2595 L3.142,4.6015 C3.0055,4.465 2.785,4.465 2.6485,4.6015 C2.512,4.738 2.512,4.9585 2.6485,5.095 L3.555,6.0015 C3.6915,6.138 3.912,6.138 4.0485,6.0015 L6.355,3.695 C6.4915,3.5585 6.4915,3.338 6.355,3.2015 C6.2185,3.065 5.9945,3.065 5.858,3.2015 Z" id="Shape" fill="#FFFFFF" fill-rule="nonzero"></path>
                </g>
            </g>
        </g>
    </g>
</svg>