<?xml version="1.0" encoding="UTF-8"?>
<svg width="21px" height="21px" viewBox="0 0 21 21" version="1.1" xmlns="http://www.w3.org/2000/svg" xmlns:xlink="http://www.w3.org/1999/xlink">
    <!-- Generator: Sketch 59.1 (86144) - https://sketch.com -->
    <title>Group 8</title>
    <desc>Created with Sketch.</desc>
    <g id="Page-1" stroke="none" stroke-width="1" fill="none" fill-rule="evenodd">
        <g id="Home-2" transform="translate(-727.000000, -3825.000000)">
            <g id="Group-9" transform="translate(704.000000, 3730.000000)">
                <g id="Group-8" transform="translate(24.000000, 96.000000)">
                    <circle id="Oval" stroke="#976502" cx="9.5" cy="9.5" r="9.5"></circle>
                    <path d="M9.59587229,13.6666667 L9.59587229,10.3018775 L10.7876169,10.3018775 L10.9576645,8.98888854 L9.59587229,8.98888854 L9.59587229,8.16844054 C9.59587229,7.79903485 9.72358441,7.51194608 10.2767684,7.51194608 L11,7.51194608 L11,6.3220924 C10.8299524,6.3220924 10.4044805,6.28127409 9.93596754,6.28127409 C9.4565709,6.25053028 8.987246,6.4236934 8.65160839,6.755154 C8.31597077,7.08661461 8.14767152,7.5431404 8.19103898,8.004487 L8.19103898,8.98888854 L7,8.98888854 L7,10.3018775 L8.19174458,10.3018775 L8.19174458,13.6659864 L9.59587229,13.6666667 Z" id="Path_1" fill="#DAA519" fill-rule="nonzero"></path>
                </g>
            </g>
        </g>
    </g>
</svg>