<?xml version="1.0" encoding="UTF-8"?>
<svg width="52px" height="52px" viewBox="0 0 52 52" version="1.1" xmlns="http://www.w3.org/2000/svg" xmlns:xlink="http://www.w3.org/1999/xlink">
    <!-- Generator: Sketch 59.1 (86144) - https://sketch.com -->
    <title>Shape</title>
    <desc>Created with Sketch.</desc>
    <g id="Page-1" stroke="none" stroke-width="1" fill="none" fill-rule="evenodd">
        <g id="Home" transform="translate(-343.000000, -2479.000000)" fill="#DAA519" fill-rule="nonzero">
            <g id="Group-15" transform="translate(286.000000, 2478.000000)">
                <path d="M108.689727,16.2779453 C108.686781,16.2583437 108.683023,16.2388438 108.678555,16.2194453 C108.387477,14.6692969 107.904242,13.1863828 107.254648,11.7958906 C107.236773,11.742875 107.212906,11.6916875 107.183148,11.6429375 C106.578852,10.3796016 105.836734,9.19426562 104.976195,8.10673438 C104.944305,8.05321094 104.906422,8.00242969 104.860312,7.95632031 C104.854117,7.950125 104.847312,7.94484375 104.840914,7.93885156 C103.995609,6.89529688 103.040211,5.94446875 101.992594,5.1039375 C101.986703,5.09764063 101.981422,5.09103906 101.975328,5.08484375 C101.928,5.03761719 101.875695,4.99861719 101.820547,4.96642188 C100.728648,4.11126563 99.5390469,3.37544531 98.2721562,2.77734375 C98.2239141,2.74778906 98.1731328,2.72432813 98.1207266,2.70655469 C96.7222109,2.06163281 95.2312734,1.58398438 93.6732031,1.30103125 C93.6538047,1.29666406 93.6343047,1.29300781 93.6147031,1.29016406 C92.5470781,1.09953125 91.448375,1 90.3268203,1 C89.46425,1 88.6156953,1.060125 87.784,1.17377344 C87.7813594,1.17397656 87.7787187,1.17458594 87.7759766,1.17489062 C79.8892422,2.25714062 73.5567188,8.28213281 72.0143906,16.0148984 C69.9900469,16.4182031 68.0405547,17.1542266 66.2531563,18.2005234 C65.8893594,18.4135 65.7671797,18.8809922 65.9800547,19.2447891 C66.1930313,19.6085859 66.660625,19.7307656 67.0242188,19.5178906 C68.5030703,18.6521719 70.1032891,18.0180156 71.7658672,17.63025 C71.6925391,18.301375 71.6536406,18.9827578 71.6536406,19.6731797 C71.6536406,20.7937188 71.7530703,21.8915078 71.9431953,22.9581172 C71.9462422,22.9790391 71.95,22.9998594 71.9547734,23.0204766 C72.2377266,24.5780391 72.7152734,26.0684688 73.3599922,27.4664766 C73.3777656,27.5190859 73.4014297,27.5699688 73.4309844,27.6184141 C74.0291875,28.8852031 74.7648047,30.0747031 75.6199609,31.1666016 C75.6522578,31.22175 75.6911563,31.2740547 75.7384844,31.3213828 C75.7444766,31.3274766 75.7510781,31.3325547 75.7572734,31.3383437 C76.5979062,32.3860625 77.5487344,33.3415625 78.5924922,34.1870703 C78.5984844,34.1934687 78.6037656,34.2001719 78.6099609,34.2063672 C78.6559687,34.252375 78.70675,34.2903594 78.7601719,34.3221484 C79.8478047,35.1827891 81.0331406,35.9249062 82.2964766,36.5292031 C82.3452266,36.5590625 82.3965156,36.5828281 82.4494297,36.6007031 C83.840125,37.2505 85.3232422,37.7337344 86.8736953,38.0248125 C86.8926875,38.0291797 86.9117813,38.0328359 86.9309766,38.0357812 C88.0325234,38.2390078 89.1673828,38.3461562 90.3268203,38.3461562 C91.0174453,38.3461562 91.6990313,38.3072578 92.3703594,38.2338281 C90.5973828,45.8122187 83.7840625,51.4733125 75.6730781,51.4733125 C66.2183203,51.4733125 58.5262812,43.7812734 58.5262812,34.3265156 C58.5262812,29.5589687 60.4362656,25.1302344 63.9043203,21.8559609 C64.2108359,21.5666094 64.2246484,21.0835781 63.9353984,20.7770625 C63.6459453,20.4705469 63.1629141,20.4567344 62.8565,20.7459844 C61.0266484,22.4735625 59.5864922,24.5124297 58.57625,26.8060156 C57.5304609,29.1812578 57,31.7114844 57,34.3268203 C57,44.6233281 65.376875,53 75.6732813,53 C84.7178281,53 92.2800703,46.5361562 93.9856094,37.9855078 C101.76357,36.4340391 107.814461,30.0366172 108.844508,22.0854922 C108.845016,22.0808203 108.846031,22.07625 108.846438,22.0716797 C108.947594,21.2861953 109,20.4856797 109,19.6731797 C109,18.5139453 108.892852,17.3792891 108.689727,16.2779453 Z M104.23682,9.65901562 C104.746258,10.3647734 105.204102,11.1101406 105.603141,11.8903437 L92.078875,25.4146094 C91.6614531,24.6493359 91.1917266,23.9166641 90.6751797,23.2206562 L104.23682,9.65901562 Z M103.283352,8.45357031 L89.7104375,22.0264844 C89.150625,21.3883672 88.5486641,20.7881328 87.9078047,20.2313672 L101.479398,6.659875 C102.123711,7.21278125 102.727094,7.81220313 103.283352,8.45357031 Z M100.269383,5.71097656 L86.7077422,19.2727187 C86.0086875,18.7589141 85.2729687,18.2921328 84.5048516,17.8779609 L98.0269844,4.35572656 C98.8106406,4.75121094 99.5601719,5.20448438 100.269383,5.71097656 Z M93.7552656,2.87098437 C94.7127969,3.0661875 95.6414844,3.34172656 96.5342188,3.68967969 L83.0499688,17.1738281 C82.1889219,16.8021094 81.2949688,16.4928516 80.3731875,16.2529609 L93.7552656,2.87098437 Z M88.2131016,2.65678906 C88.9059609,2.57117187 89.6113125,2.52638281 90.3269219,2.52638281 C90.8473281,2.52638281 91.3620469,2.55096094 91.870875,2.5965625 L78.5861953,15.8812422 C77.6367891,15.7319453 76.6640234,15.6536406 75.6732812,15.6536406 C75.5181953,15.6536406 75.3633125,15.6575 75.2085312,15.6613594 L88.2131016,2.65678906 Z M85.4882813,3.22269531 L73.8763359,14.8347422 C75.5176875,9.26383594 79.9174766,4.86394531 85.4882813,3.22269531 Z M73.2504062,21.2172344 C73.2047031,20.7083047 73.180125,20.1935859 73.180125,19.6731797 C73.180125,18.9575703 73.2249141,18.2522188 73.3105312,17.5593594 L73.5574297,17.3124609 C74.2570937,17.2257266 74.9635625,17.1800234 75.6733828,17.1800234 C76.1937891,17.1800234 76.7085078,17.2046016 77.2173359,17.2502031 L73.2504062,21.2172344 Z M73.524625,23.1015234 L79.1015234,17.524625 C80.0591563,17.7197266 80.9877422,17.9952656 81.8804766,18.3433203 L74.3432188,25.8806797 C73.9953672,24.9878438 73.7197266,24.0591563 73.524625,23.1015234 Z M76.3647188,29.6157422 C75.858125,28.9064297 75.4048516,28.1568984 75.0093672,27.3733438 L83.3734453,19.0092656 C84.157,19.4048516 84.9065313,19.8580234 85.6158438,20.3646172 L76.3647188,29.6157422 Z M77.3135156,30.8257578 L86.8257578,21.3135156 C87.4700703,21.8665234 88.0734531,22.4658438 88.6297109,23.1072109 L79.1073125,32.6296094 C78.4658438,32.0734531 77.8665234,31.4700703 77.3135156,30.8257578 Z M80.3126563,33.5830781 L89.5831797,24.3126562 C90.0927188,25.0184141 90.5504609,25.7636797 90.9495,26.5438828 L82.5437812,34.9496016 C81.7636797,34.5503594 81.0183125,34.0925156 80.3126563,33.5830781 Z M86.7962031,36.4536406 C85.8428359,36.2533594 84.9182109,35.9741641 84.0299453,35.6221484 L91.62225,28.0299453 C91.9741641,28.9182109 92.2533594,29.8428359 92.4537422,30.7962031 L86.7962031,36.4536406 Z M92.7057187,36.3005859 L92.3006875,36.7056172 C91.6528203,36.7802656 90.9943906,36.8199766 90.3268203,36.8199766 C89.7676172,36.8199766 89.2148125,36.7921484 88.6691172,36.7395391 L92.7395391,32.6691172 C92.7921484,33.2147109 92.8199766,33.7675156 92.8199766,34.3268203 C92.8199766,34.9943906 92.7803672,35.6527187 92.7057187,36.3005859 Z M93.7206328,29.5293125 C93.4762734,28.6111875 93.1635625,27.7208906 92.7883906,26.8639062 L106.275891,13.3765078 C106.627805,14.2647734 106.907,15.1893984 107.107281,16.1426641 L93.7206328,29.5293125 Z M94.9898594,36.1753594 L106.829102,24.3360156 C105.212633,30.0490078 100.702648,34.5588906 94.9898594,36.1753594 Z M107.359359,21.6469453 L94.3421953,34.6641094 C94.3442266,34.5517813 94.3464609,34.4395547 94.3464609,34.3267188 C94.3464609,33.2989063 94.2616563,32.2906953 94.1010859,31.3075703 L107.393281,18.0154766 C107.445891,18.5610703 107.473719,19.113875 107.473719,19.6731797 C107.473719,20.34075 107.433906,20.9991797 107.359359,21.6469453 Z" id="Shape"></path>
            </g>
        </g>
    </g>
</svg>