<?xml version="1.0" encoding="UTF-8"?>
<svg width="54px" height="54px" viewBox="0 0 54 54" version="1.1" xmlns="http://www.w3.org/2000/svg" xmlns:xlink="http://www.w3.org/1999/xlink">
    <!-- Generator: Sketch 59.1 (86144) - https://sketch.com -->
    <title>Download</title>
    <desc>Created with Sketch.</desc>
    <g id="Page-1" stroke="none" stroke-width="1" fill="none" fill-rule="evenodd">
        <g id="Home" transform="translate(-922.000000, -2478.000000)" fill="#DAA519" fill-rule="nonzero" stroke="#000000">
            <g id="Group-15" transform="translate(286.000000, 2478.000000)">
                <g id="Download" transform="translate(637.000000, 1.000000)">
                    <path d="M24.8495,43.3980625 C24.9250625,43.473625 25.00875,43.541875 25.098125,43.6011875 C25.13875,43.628 25.182625,43.6466875 25.2240625,43.6694375 C25.27525,43.697875 25.324,43.7279375 25.377625,43.7506875 C25.43125,43.772625 25.4873125,43.785625 25.5425625,43.801875 C25.588875,43.8156875 25.6335625,43.8335625 25.6815,43.8425 C25.787125,43.863625 25.8935625,43.875 26,43.875 C26.1064375,43.875 26.212875,43.863625 26.3185,43.8425 C26.3664375,43.83275 26.411125,43.814875 26.4574375,43.801875 C26.5126875,43.785625 26.56875,43.772625 26.622375,43.7506875 C26.676,43.7279375 26.72475,43.697875 26.7759375,43.6694375 C26.817375,43.6466875 26.86125,43.628 26.901875,43.6011875 C26.99125,43.541875 27.0749375,43.473625 27.1505,43.3980625 L36.8996875,33.648875 C37.53425,33.0143125 37.53425,31.9856875 36.8996875,31.351125 C36.2659375,30.7165625 35.2356875,30.7165625 34.6019375,31.351125 L27.625,38.3264375 L27.625,1.625 C27.625,0.728 26.897,0 26,0 C25.103,0 24.375,0.728 24.375,1.625 L24.375,38.3264375 L17.398875,31.351125 C16.765125,30.7165625 15.734875,30.7165625 15.101125,31.351125 C14.4665625,31.9856875 14.4665625,33.0143125 15.101125,33.648875 L24.8495,43.3980625 Z" id="Path"></path>
                    <path d="M50.375,35.75 L47.125,35.75 C46.228,35.75 45.5,36.478 45.5,37.375 C45.5,38.272 46.228,39 47.125,39 L48.75,39 L48.75,48.75 L3.25,48.75 L3.25,39 L11.375,39 C12.272,39 13,38.272 13,37.375 C13,36.478 12.272,35.75 11.375,35.75 L1.625,35.75 C0.728,35.75 0,36.478 0,37.375 L0,50.375 C0,51.272 0.728,52 1.625,52 L50.375,52 C51.272,52 52,51.272 52,50.375 L52,37.375 C52,36.478 51.272,35.75 50.375,35.75 Z" id="Path"></path>
                    <path d="M40.625,39 C41.055625,39 41.47,38.829375 41.770625,38.520625 C42.079375,38.22 42.25,37.805625 42.25,37.375 C42.25,36.944375 42.079375,36.53 41.770625,36.229375 C41.169375,35.62 40.080625,35.62 39.479375,36.229375 C39.170625,36.53 39,36.944375 39,37.375 C39,37.7975 39.170625,38.22 39.479375,38.52875 C39.78,38.829375 40.2025,39 40.625,39 Z" id="Path"></path>
                </g>
            </g>
        </g>
    </g>
</svg>