<?xml version="1.0" encoding="UTF-8"?>
<svg width="52px" height="52px" viewBox="0 0 52 52" version="1.1" xmlns="http://www.w3.org/2000/svg" xmlns:xlink="http://www.w3.org/1999/xlink">
    <!-- Generator: Sketch 59.1 (86144) - https://sketch.com -->
    <title>Lock, Secure, Protect, Safety, Safe, Protection Copy</title>
    <desc>Created with Sketch.</desc>
    <g id="Page-1" stroke="none" stroke-width="1" fill="none" fill-rule="evenodd">
        <g id="Home" transform="translate(-312.000000, -2725.000000)" fill="#DAA519" fill-rule="nonzero">
            <g id="Group-15" transform="translate(286.000000, 2478.000000)">
                <g id="Lock,-Secure,-Protect,-Safety,-Safe,-Protection-Copy" transform="translate(26.000000, 247.000000)">
                    <path d="M11.59375,0 C5.1875432,0 0,5.1912532 0,11.5976562 L0,40.40625 C0,46.81244 5.1875196,52 11.59375,52 L40.40625,52 C46.812476,52 52,46.81244 52,40.40625 L52,11.5976562 C52,5.1912532 46.812454,0 40.40625,0 L11.59375,0 Z M11.59375,2 L40.40625,2 C45.739066,2 50,6.2644968 50,11.5976562 L50,40.40625 C50,45.738982 45.739044,50 40.40625,50 L11.59375,50 C6.2609532,50 2,45.738982 2,40.40625 L2,11.5976562 C2,6.2644968 6.2609318,2 11.59375,2 Z M25.945312,12 C22.669226,12 20,14.6692746 20,17.9453124 L20,22.054688 C17.5877258,23.883382 16,26.748702 16,30 C16,35.511038 20.488928,40 26,40 C31.511072,40 36,35.511038 36,30 C36,26.74977 34.416002,23.883382 32.003906,22.054688 L32.003906,17.9453124 C32.003906,14.6692746 29.330774,12 26.054688,12 L25.945312,12 Z M25.945312,14 L26.054688,14 C28.256852,14 30,15.743158 30,17.9453124 L30,20.847656 C28.77224,20.308048 27.423804,20 26,20 C24.576196,20 23.227348,20.308048 22,20.847656 L22,17.9453124 C22,15.743158 23.743148,14 25.945312,14 Z M26,21.996094 L26,22 C26.488044,22 26.958284,22.057444 27.421876,22.140624 C27.583886,22.170484 27.742668,22.211608 27.902344,22.25 C28.197426,22.322516 28.484534,22.41197 28.765624,22.515624 C28.94346,22.581742 29.12389,22.643742 29.296876,22.722656 C29.618254,22.86769 29.92581,23.037526 30.222656,23.222656 C30.295664,23.267446 30.37366,23.30464 30.445312,23.351562 C30.464492,23.3626244 30.4840341,23.3730468 30.503906,23.382812 C32.615152,24.821198 34,27.240254 34,29.996094 C34,34.42621 30.430186,37.996094 26,37.996094 C21.569814,37.996094 18,34.42621 18,29.996094 C18,27.249212 19.378209,24.838742 21.476562,23.398438 C21.504707,23.3828402 21.5320829,23.3658932 21.558594,23.347656 C21.667176,23.27514 21.786842,23.2245 21.898438,23.15625 C22.154268,23.002686 22.410054,22.85112 22.683594,22.726562 C22.870536,22.64125 23.065202,22.575144 23.257812,22.503906 C23.526564,22.405796 23.800516,22.31825 24.082032,22.25 C24.24786,22.209476 24.413644,22.166578 24.582032,22.136718 C25.043308,22.053538 25.514446,21.996094 26,21.996094 Z M26,26 C24.355196,26 23,27.35537 23,29 C23,29.822422 23.337104,30.578926 23.878906,31.121094 C24.190086,31.432062 24.575714,31.665402 25,31.816406 L25,36 L27,36 L27,31.816406 C27.425456,31.664974 27.813822,31.432062 28.125,31.121094 C28.666802,30.578926 29,29.822422 29,29 C29,27.35537 27.644804,26 26,26 Z M26,28 C26.571198,28 27,28.428826 27,29 C27,29.285586 26.888218,29.529434 26.707032,29.710938 C26.526038,29.892228 26.285534,30 26,30 C25.714466,30 25.473952,29.891162 25.292968,29.710938 C25.111762,29.529646 25,29.285586 25,29 C25,28.428826 25.428802,28 26,28 Z" id="Shape"></path>
                </g>
            </g>
        </g>
    </g>
</svg>