<?xml version="1.0" encoding="UTF-8"?>
<svg width="52px" height="52px" viewBox="0 0 52 52" version="1.1" xmlns="http://www.w3.org/2000/svg" xmlns:xlink="http://www.w3.org/1999/xlink">
    <!-- Generator: Sketch 59.1 (86144) - https://sketch.com -->
    <title>wallet</title>
    <desc>Created with Sketch.</desc>
    <g id="Page-1" stroke="none" stroke-width="1" fill="none" fill-rule="evenodd">
        <g id="Home" transform="translate(-950.000000, -2720.000000)" fill="#DAA519" fill-rule="nonzero">
            <g id="Group-15" transform="translate(286.000000, 2478.000000)">
                <g id="wallet" transform="translate(664.000000, 242.000000)">
                    <path d="M15.773875,32.5007962 C16.6709664,32.501692 17.3979793,33.2287048 17.398875,34.1257962 C17.398875,34.5745276 17.7626436,34.9382962 18.211375,34.9382962 C18.6601064,34.9382962 19.023875,34.5745276 19.023875,34.1257962 C19.0194783,32.6479435 18.0175938,31.35952 16.586375,30.9911713 L16.586375,30.0632963 C16.586375,29.6145649 16.2226064,29.2507963 15.773875,29.2507963 C15.3251436,29.2507963 14.961375,29.6145649 14.961375,30.0632963 L14.961375,30.9911713 C13.3770562,31.3973242 12.3430928,32.9196409 12.549566,34.5421067 C12.7560391,36.1645724 14.1383282,37.3793996 15.773875,37.3757963 C16.6713377,37.3757963 17.398875,38.1033335 17.398875,39.0007963 C17.398875,39.898259 16.6713377,40.6257962 15.773875,40.6257962 C14.8764123,40.6257962 14.148875,39.898259 14.148875,39.0007963 C14.148875,38.5520649 13.7851064,38.1882963 13.336375,38.1882963 C12.8876436,38.1882963 12.523875,38.5520649 12.523875,39.0007963 C12.5282717,40.478649 13.5301562,41.7670725 14.961375,42.1354213 L14.961375,43.0632963 C14.961375,43.5120276 15.3251436,43.8757963 15.773875,43.8757963 C16.2226064,43.8757963 16.586375,43.5120276 16.586375,43.0632963 L16.586375,42.1354213 C18.1706938,41.7292683 19.2046572,40.2069516 18.998184,38.5844858 C18.7917109,36.9620201 17.4094218,35.7471929 15.773875,35.7507963 C14.8764123,35.7507963 14.148875,35.023259 14.148875,34.1257963 C14.148875,33.2283335 14.8764123,32.5007963 15.773875,32.5007963 L15.773875,32.5007962 Z M50.1192575,21.7659162 L50.8192913,21.0655412 C51.5831252,20.3071279 52.0088021,19.272706 52.0001338,18.1963437 C51.9970874,17.1212928 51.566584,16.0915705 50.8034638,15.334345 L36.9893388,1.52022 C36.8889614,1.41189091 36.7790181,1.31283589 36.660845,1.22425875 C35.2804119,-0.150336328 33.0526358,-0.163738932 31.6557638,1.1941475 C31.5130697,1.29021897 31.384825,1.40617382 31.2749125,1.53850125 L11.7245213,21.125 L4.0625,21.125 C1.81981964,21.1273556 0.00235558457,22.9448196 0,25.1875 L0,47.9375 C0.00235558457,50.1801804 1.81981964,51.9976444 4.0625,52 L47.9375,52 C50.1801804,51.9976444 51.9976444,50.1801804 52.0001338,47.9375 L52.0001338,25.1875 C52.0030658,23.7994818 51.2927791,22.507243 50.1193063,21.7659163 L50.1192575,21.7659162 Z M32.4238363,2.68584875 C32.4397125,2.67076875 32.549205,2.55890375 32.5634888,2.5430275 C32.6286922,2.49185972 32.6906993,2.43674479 32.7491613,2.3779925 C33.1397881,2.00633156 33.6628391,1.80634537 34.2017801,1.82259024 C34.740721,1.83883511 35.2507773,2.06996145 35.61831,2.464475 C35.7035122,2.53256928 35.7836016,2.60682543 35.8579325,2.686645 L49.6545563,16.4832688 C50.1133682,16.9384192 50.3725287,17.5572242 50.375068,18.2034937 C50.379842,18.8459915 50.1259022,19.4634028 49.6704162,19.9165687 L48.4022662,21.1840687 C48.2487238,21.1547302 48.0935,21.1350023 47.9375,21.125 L46.145125,21.125 L47.4551187,19.81421 C47.70212,19.5671094 47.7634678,19.1897565 47.6074625,18.8771375 C47.5035373,18.6666904 47.449764,18.4350335 47.4503575,18.200325 C47.4516004,17.9547773 47.5080012,17.7126469 47.6153925,17.491825 C47.7616903,17.181178 47.6975976,16.812159 47.4551187,16.5690362 L35.7388687,4.85278625 C35.4912791,4.6047482 35.1124496,4.54363694 34.7994238,4.70123875 C34.3676715,4.90596566 33.8669223,4.9065619 33.4346838,4.70286375 C33.1270239,4.5632556 32.7649913,4.62971368 32.526975,4.86949125 L16.2706375,21.125 L14.0185988,21.125 L32.4238363,2.68584875 Z M45.9380025,19.0342425 L43.8479275,21.125 L35.361625,21.125 C35.2097512,18.561112 33.0862479,16.5596736 30.5178656,16.5596736 C27.9494833,16.5596736 25.82598,18.561112 25.6741063,21.125 L18.568485,21.125 L33.31575,6.3778 C33.8547484,6.52060651 34.4219165,6.51841457 34.959795,6.37144625 L45.93966,17.3513113 C45.8637099,17.6279134 45.8252813,17.9134688 45.8254063,18.2003088 C45.8254021,18.482075 45.8632677,18.7625637 45.9379862,19.0342425 L45.9380025,19.0342425 Z M33.736625,21.125 L27.2991875,21.125 C27.4496742,19.4595967 28.8457178,18.1840127 30.5179062,18.1840127 C32.1900947,18.1840127 33.5861383,19.4595967 33.736625,21.125 L33.736625,21.125 Z M50.375,40.6250251 L34.9375,40.6250251 C33.7005405,40.6293478 32.5295703,40.0675359 31.7589187,39.09997 C31.1898808,38.3762059 30.8787932,37.4831651 30.875,36.5625 C30.875,36.4079788 30.8892838,36.2534413 30.9035675,36.09892 C31.1197028,34.2220772 32.6018074,32.7423167 34.47899,32.5291525 C34.6334138,32.5149825 34.7846525,32.5 34.9375,32.5 L50.375,32.5 L50.375,40.6250251 Z M50.3750103,30.875 L34.9375,30.875 C34.73275,30.875 34.529625,30.8916563 34.3265,30.91075 L34.322925,30.9118388 L34.3201463,30.9115463 C31.669276,31.201081 29.5759835,33.2943735 29.2864488,35.9452438 L29.2867412,35.947925 L29.2848563,35.95397 C29.2674525,36.15625 29.25,36.3601713 29.25,36.5625 C29.254257,37.84891 29.6888765,39.0968974 30.4846263,40.107665 C31.5623948,41.466164 33.2034087,42.255677 34.9375,42.25 L50.3750103,42.25 L50.3750103,47.9375 C50.3735312,49.2830852 49.2830852,50.3735312 47.9375,50.375 L4.0625,50.375 C2.71691477,50.3735312 1.62646877,49.2830852 1.625,47.9375 L1.625,25.1875 C1.62646877,23.8419148 2.71691477,22.7514688 4.0625,22.7499827 L47.9375,22.7499827 C48.1238308,22.7492523 48.3094677,22.7727409 48.48974,22.819875 L48.5119537,22.8254325 C49.6063694,23.0842566 50.3782602,24.0629002 50.3750103,25.1875 L50.3750103,30.875 Z M32.5,36.5625 C32.5,37.9086941 33.5913059,39 34.9375,39 C36.2836941,39 37.375,37.9086941 37.375,36.5625 C37.375,35.2163059 36.2836941,34.125 34.9375,34.125 C33.5919148,34.1264688 32.5014688,35.2169148 32.5,36.5625 L32.5,36.5625 Z M35.75,36.5625 C35.75,37.0112314 35.3862314,37.375 34.9375,37.375 C34.4887686,37.375 34.125,37.0112314 34.125,36.5625 C34.125,36.1137686 34.4887686,35.75 34.9375,35.75 C35.3859901,35.7505819 35.7494181,36.1140099 35.75,36.5625 Z M15.4375,26 C9.60399233,26 4.875,30.7289923 4.875,36.5625 C4.875,42.3960077 9.60399233,47.125 15.4375,47.125 C21.2710077,47.125 26,42.3960077 26,36.5625 C25.9932571,30.7317876 21.2682124,26.0067429 15.4375,26 Z M15.4375,45.5 C10.501455,45.5 6.5,41.498545 6.5,36.5625 C6.5,31.626455 10.501455,27.625 15.4375,27.625 C20.373545,27.625 24.375,31.626455 24.375,36.5625 C24.3691439,41.4961172 20.3711172,45.4941439 15.4375,45.5 Z" id="Shape"></path>
                </g>
            </g>
        </g>
    </g>
</svg>