<?xml version="1.0" encoding="UTF-8"?>
<svg width="53px" height="53px" viewBox="0 0 53 53" version="1.1" xmlns="http://www.w3.org/2000/svg" xmlns:xlink="http://www.w3.org/1999/xlink">
    <!-- Generator: Sketch 59.1 (86144) - https://sketch.com -->
    <title>Office</title>
    <desc>Created with Sketch.</desc>
    <g id="Page-1" stroke="none" stroke-width="1" fill="none" fill-rule="evenodd">
        <g id="Home" transform="translate(-609.000000, -2478.000000)" fill="#DAA519" stroke="#000000" stroke-width="0.5">
            <g id="Group-15" transform="translate(286.000000, 2478.000000)">
                <g id="Office" transform="translate(323.000000, 0.000000)">
                    <path d="M50.9104513,0.716984545 L50.9104513,0.746181421 L50.9104513,0.767036241 C50.9007194,0.766903187 50.8909862,0.766903187 50.8812543,0.767036241 C50.7732433,0.770349842 50.666361,0.790038659 50.5642591,0.825429993 C50.5402818,0.834310265 50.5166311,0.844048834 50.4933528,0.854626869 C50.4919626,0.854624154 50.4905723,0.854624154 50.4891821,0.854626869 L14.7314154,11.532322 C14.3721687,11.6409985 14.0963482,11.9302931 14.0049167,12.294311 C13.9134851,12.658329 14.019867,13.0436225 14.2851219,13.3091571 L20.5749507,19.5989859 L24.7792931,23.8033284 C25.1305925,24.2620231 25.7830003,24.358129 26.2516469,24.0202201 C26.2530379,24.0202228 26.2544288,24.0202228 26.2558198,24.0202201 C26.3049143,23.9852459 26.3509594,23.9461776 26.3934617,23.9034339 C26.8253808,23.4716279 27.7820874,23.4734282 28.5373421,24.2287683 C29.2671946,24.958482 29.2809496,25.8599144 28.8918758,26.310086 L28.7875995,26.4310429 C28.7652861,26.4591698 28.7444053,26.488404 28.7250368,26.5186342 C28.7236458,26.5186315 28.7222549,26.5186315 28.7208639,26.5186342 C28.6818116,26.5750627 28.6482895,26.6351241 28.6207627,26.6979853 C28.6193717,26.6979826 28.6179808,26.6979826 28.6165898,26.6979853 C28.6040739,26.7280479 28.5929397,26.7586672 28.583222,26.7897473 C28.5818318,26.7897446 28.5804416,26.7897446 28.5790513,26.7897473 C28.5706331,26.8213883 28.5636746,26.8533996 28.5581978,26.88568 C28.4719894,27.2925648 28.6298659,27.7124838 28.9627821,27.9617909 L33.1546103,32.1536213 L39.4444412,38.44345 C39.710565,38.7086155 40.0964485,38.8144373 40.4606069,38.7221156 C40.8247654,38.6297939 41.1136253,38.3529109 41.2212758,37.9929858 L51.915656,2.20185153 L51.9239974,2.18099671 C51.9299072,2.16583225 51.9354696,2.15053466 51.9406802,2.13511593 C51.952308,2.09950467 51.9620538,2.06330621 51.9698773,2.0266707 C51.9771552,1.99220903 51.9827237,1.95740838 51.9865623,1.92239639 C51.9881276,1.91129637 51.989518,1.90017239 51.990733,1.88902859 C51.9931046,1.8626732 51.9944958,1.83623876 51.9950035,1.80978002 C51.9950035,1.80004818 51.9950035,1.79031498 51.9950035,1.78058314 C51.9943952,1.75551606 51.9930041,1.73047465 51.990733,1.70550549 C51.989518,1.69436169 51.9881276,1.68323771 51.9865623,1.67213769 C51.9832843,1.64697112 51.9791103,1.62192941 51.974048,1.59706025 C51.9682196,1.56898506 51.9612628,1.54115601 51.9531945,1.51364076 C51.9518735,1.50667548 51.9504832,1.49972353 51.9490238,1.49278594 C51.9463457,1.48440992 51.9435643,1.4760673 51.9406802,1.46775999 C51.9298466,1.43378636 51.9173181,1.40037671 51.9031417,1.36765659 C51.8928904,1.3436208 51.8817603,1.31996937 51.8697739,1.29675008 C51.8657127,1.28835381 51.8615416,1.28001111 51.8572618,1.27172412 C51.8441834,1.24897401 51.8302709,1.2267137 51.8155526,1.20498853 C51.8101087,1.1965687 51.8045465,1.18822596 51.7988676,1.17996279 C51.7947762,1.17296391 51.7906052,1.16601185 51.7863555,1.15910797 C51.7692772,1.13472704 51.7511869,1.11107088 51.732132,1.08820145 C51.7097212,1.06204672 51.6860581,1.03699155 51.6612257,1.0131238 C51.6346503,0.988077515 51.6068075,0.964410915 51.5778073,0.942217284 C51.557515,0.926170899 51.5366462,0.91086721 51.5152424,0.896336509 C51.5070068,0.889258057 51.4986637,0.882305641 51.490216,0.875481689 C51.463184,0.857539189 51.4353482,0.840837964 51.4067955,0.825429993 C51.404015,0.825419134 51.4012345,0.825419134 51.398454,0.825429993 C51.3956736,0.825419134 51.3928931,0.825419134 51.3901126,0.825429993 C51.360123,0.81150318 51.3295027,0.798976778 51.2983507,0.787891274 C51.2750163,0.778719489 51.2513662,0.770372331 51.2274443,0.76286532 C51.2177124,0.762732266 51.2079792,0.762732266 51.1982473,0.76286532 C51.1735394,0.75359858 51.1484965,0.745250864 51.1231702,0.737839365 C51.1134383,0.737706311 51.1037051,0.737706311 51.0939732,0.737839365 C51.0582088,0.729022066 51.0220121,0.722061154 50.9855284,0.716984545 C50.9605104,0.716324555 50.9354693,0.716324555 50.9104513,0.716984545 Z M46.3015225,4.33739056 L25.6927379,21.70533 L22.0848451,18.0932643 L17.0629905,13.0714116 L46.3015225,4.33739056 Z M48.4245494,6.4562457 L39.6905279,35.7031199 L34.6645047,30.6770946 L31.052439,27.0650311 L48.4245494,6.4562457 Z M42.022103,10.7231528 L30.8981143,23.9201167 C30.690967,23.4819041 30.4046895,23.0721945 30.0472344,22.7147053 C29.6842376,22.3516637 29.262774,22.0634855 28.8167966,21.855484 L42.022103,10.7231528 Z M14.4603023,18.6688604 C14.1825997,18.677677 13.9192671,18.7943806 13.7262108,18.9941948 L11.8826403,20.8335965 C11.6036985,21.1014116 11.4913344,21.4991013 11.5888829,21.8732907 C11.6864314,22.2474801 11.9786495,22.5396981 12.3528389,22.6372465 C12.7270284,22.7347949 13.124718,22.6224307 13.392533,22.3434888 L15.2361031,20.5040893 C15.5534934,20.1973562 15.6494661,19.7269628 15.4776051,19.3204095 C15.305744,18.9138562 14.9014687,18.6549311 14.4603023,18.6688604 L14.4603023,18.6688604 Z M18.1682985,22.3643424 C18.165512,22.3657212 18.1627315,22.3671121 18.1599571,22.3685152 C17.8837138,22.3784026 17.6220666,22.4950219 17.4300363,22.6938496 L15.586466,24.5374199 C15.3075366,24.8052376 15.1951818,25.2029211 15.2927317,25.5771028 C15.3902816,25.9512845 15.6824934,26.2434968 16.056675,26.3410472 C16.4308566,26.4385976 16.8285403,26.3262434 17.0963583,26.0473143 L18.9399286,24.2037419 C19.2598645,23.8980222 19.3580969,23.4266503 19.186912,23.0185825 C19.0157271,22.6105148 18.6105954,22.3503047 18.1682985,22.3643424 Z M8.93376113,24.1995712 C8.65665306,24.2072851 8.39340458,24.3224566 8.19966959,24.5207371 L1.03810612,31.6781286 C0.623285141,32.0956363 0.623908238,32.7698965 1.03950016,33.1866368 C1.45509209,33.6033772 2.12934794,33.605861 2.54799885,33.1921937 L9.70956253,26.0306294 C10.0237913,25.7234202 10.1177377,25.2550783 9.94629953,24.8504474 C9.77486138,24.4458165 9.37304698,24.1875237 8.93376113,24.1995712 Z M12.6334157,27.899226 C12.3557128,27.9080432 12.0923802,28.0247476 11.8993242,28.2245626 L8.21218256,31.9075324 C7.9332563,32.1753508 7.82090404,32.5730329 7.91845439,32.9472126 C8.01600473,33.3213924 8.30821512,33.6136031 8.68239477,33.7111539 C9.05657442,33.8087046 9.45425657,33.6963528 9.72207529,33.4174269 L13.4092169,29.7344549 C13.7266073,29.4277218 13.82258,28.9573282 13.6507188,28.5507749 C13.4788577,28.1442215 13.0745822,27.8852965 12.6334157,27.899226 L12.6334157,27.899226 Z M29.2672629,33.4674775 C29.2658689,33.4688639 29.2644786,33.4702541 29.2630922,33.4716482 C28.9853893,33.4804653 28.7220567,33.5971697 28.5290007,33.7969848 L26.6854304,35.640555 C26.4064855,35.9083693 26.2941189,36.3060605 26.3916669,36.6802519 C26.489215,37.0544432 26.7814345,37.3466628 27.1556259,37.4442108 C27.5298172,37.5417588 27.9275084,37.4293923 28.1953227,37.1504473 L30.038893,35.3068771 C30.3588289,35.0011573 30.4570613,34.5297854 30.2858764,34.1217177 C30.1146916,33.7136499 29.7095598,33.4534398 29.2672629,33.4674775 Z M32.9669177,37.171303 C32.6892148,37.1801201 32.4258822,37.2968245 32.2328262,37.4966396 L30.3892538,39.3402098 C30.1103247,39.6080279 29.9979706,40.0057116 30.095521,40.3798931 C30.1930714,40.7540747 30.4852836,41.0462866 30.8594653,41.1438364 C31.233647,41.2413863 31.6313306,41.1290316 31.8991482,40.8501021 L33.7427185,39.0065319 C34.0601088,38.6997988 34.1560816,38.2294054 33.9842205,37.8228521 C33.8123595,37.4162988 33.4080841,37.1573737 32.9669177,37.171303 Z M23.73655,39.0023612 C23.4594419,39.0100751 23.1961934,39.1252466 23.0024584,39.323527 L19.3153179,43.0106675 C19.0363729,43.2784818 18.9240064,43.676173 19.0215544,44.0503644 C19.1191025,44.4245557 19.411322,44.7167753 19.7855134,44.8143233 C20.1597047,44.9118714 20.5573959,44.7995048 20.8252102,44.5205598 L24.5123507,40.8334193 C24.8265794,40.5262102 24.9205258,40.0578685 24.7490879,39.6532377 C24.5776499,39.2486068 24.1758357,38.9903139 23.73655,39.0023612 Z M27.4362048,42.702016 C27.1585018,42.7108331 26.8951693,42.8275375 26.7021133,43.0273525 L19.5447218,50.184744 C19.2657768,50.4525583 19.1534103,50.8502495 19.2509583,51.2244408 C19.3485063,51.5986322 19.6407259,51.8908517 20.0149172,51.9883998 C20.3891086,52.0859478 20.7867998,51.9735812 21.0546141,51.6946363 L28.2120055,44.5372448 C28.5293959,44.2305118 28.6253686,43.7601183 28.4535076,43.353565 C28.2816465,42.9470117 27.8773712,42.6880866 27.4362048,42.702016 Z" id="path21887"></path>
                </g>
            </g>
        </g>
    </g>
</svg>