<?xml version="1.0" encoding="UTF-8"?>
<svg width="30px" height="53px" viewBox="0 0 30 53" version="1.1" xmlns="http://www.w3.org/2000/svg" xmlns:xlink="http://www.w3.org/1999/xlink">
    <!-- Generator: Sketch 59.1 (86144) - https://sketch.com -->
    <title>Call</title>
    <desc>Created with Sketch.</desc>
    <g id="Page-1" stroke="none" stroke-width="1" fill="none" fill-rule="evenodd">
        <g id="Home" transform="translate(-646.000000, -2720.000000)" fill="#DAA519" fill-rule="nonzero">
            <g id="Group-15" transform="translate(286.000000, 2478.000000)">
                <g id="Call" transform="translate(360.921875, 242.000000)">
                    <path d="M4.96875,53 L23.1875,53 C25.9303793,52.996899 28.153149,50.7741293 28.15625,48.03125 L28.15625,4.96875 C28.153149,2.22587067 25.9303793,0.00310104591 23.1875,0 L4.96875,0 C2.22587067,0.00310104591 0.00310104591,2.22587067 7.10542736e-15,4.96875 L7.10542736e-15,48.03125 C0.00310104591,50.7741293 2.22587067,52.996899 4.96875,53 Z M19.4609375,1.65625 L18.6919738,3.3125 L9.46430109,3.3125 L8.6953125,1.65625 L19.4609375,1.65625 Z M1.65625,4.96875 C1.65625,3.13930677 3.13930677,1.65625 4.96875,1.65625 L7.04224664,1.65625 C7.04109373,1.89695257 7.09257069,2.13499782 7.19307305,2.35371758 L7.96206164,4.00996758 C8.23353932,4.59468672 8.81963327,4.96875263 9.46430109,4.96875 L18.6919738,4.96875 C19.3366395,4.96874543 19.9227299,4.59468178 20.1942132,4.00996758 L20.963177,2.35371758 C21.0636793,2.13499782 21.1151563,1.89695257 21.1140034,1.65625 L23.1875,1.65625 C25.0169432,1.65625 26.5,3.13930677 26.5,4.96875 L26.5,48.03125 C26.5,49.8606932 25.0169432,51.34375 23.1875,51.34375 L4.96875,51.34375 C3.13930677,51.34375 1.65625,49.8606932 1.65625,48.03125 L1.65625,4.96875 Z" id="Shape"></path>
                    <path d="M10.3517654,35.4899635 C11.2557891,36.3963784 12.4848639,36.903455 13.7650275,36.8982062 C15.0802085,36.8998242 16.3413948,36.375267 17.2674745,35.4414147 L17.7766099,34.9322793 C18.8046356,33.9099207 18.8111704,32.2483613 17.791218,31.2179482 L16.4337266,29.860465 C15.9455846,29.3704193 15.2816859,29.0960204 14.5900056,29.0984285 C13.8877765,29.0971062 13.2141994,29.3767547 12.7193955,29.8750483 L12.3985881,30.1958556 L10.801578,28.5988166 L11.1223854,28.2780092 C12.150424,27.2556578 12.1569366,25.5940817 11.1369438,24.563703 L9.77948961,23.2062239 C9.29133087,22.7161758 8.62741271,22.4417852 7.93571898,22.4441963 C7.2335169,22.4428604 6.55995921,22.7224947 6.0651875,23.2207823 L5.55602313,23.7299467 C4.63553611,24.6436728 4.11223638,25.8833527 4.09955,27.180284 C4.07966889,28.4785159 4.58778846,29.7291768 5.5074743,30.6456807 L10.3517654,35.4899635 Z M6.7271782,24.9010935 L7.23631359,24.3919581 C7.42144662,24.2057016 7.6731142,24.1008121 7.93572727,24.1004509 C8.18787101,24.0994726 8.42998348,24.1991464 8.60835109,24.3773666 L9.96580531,25.7348456 C10.3406097,26.1177553 10.334092,26.7319881 9.95124688,27.1068583 L8.94017664,28.1179285 C8.67462584,28.3779579 8.67011208,28.8040127 8.93009422,29.0696098 L11.927828,32.0673436 C12.0515573,32.1909508 12.2194892,32.2600852 12.3943813,32.2594148 C12.5765287,32.2591851 12.7510873,32.1864336 12.8794845,32.0572363 L13.8905547,31.0461702 C14.0756941,30.8599383 14.3273435,30.7550528 14.5899435,30.7546702 C14.8421009,30.7536773 15.0842267,30.8533619 15.2625922,31.0316035 L16.6200547,32.3890702 C16.994832,32.7720003 16.9883147,33.3862163 16.6054963,33.7611077 L16.0963319,34.270272 C15.4792344,34.8910957 14.6403773,35.2407175 13.7650316,35.2419433 C12.9245311,35.2451894 12.1174757,34.9129176 11.5229163,34.3188209 L6.67863352,29.474538 C5.42931521,28.1981313 5.45104767,26.150694 6.7271782,24.9010935 L6.7271782,24.9010935 Z M13.8698805,18.586512 L13.8755408,18.586512 C16.1455264,18.5658326 18.3285616,19.4584176 19.9337885,21.0635683 C21.5390155,22.6687189 22.4317043,24.8517117 22.4111328,27.1216983 C22.4095647,27.3413695 22.4953456,27.5526623 22.6495962,27.7090742 C22.8038469,27.865486 23.0139258,27.9541981 23.2335976,27.9556864 L23.2392578,27.9556864 C23.6943443,27.9556864 24.0641744,27.5884997 24.0673828,27.1334245 C24.0910469,24.4201923 23.0236746,21.811206 21.1050567,19.8925881 C19.1864388,17.9739702 16.5774526,16.906598 13.8642203,16.930262 C13.4068595,16.9318251 13.0373624,17.3038563 13.0389205,17.7612171 C13.0404885,18.2185779 13.4125197,18.588075 13.8698805,18.586512 L13.8698805,18.586512 Z" id="Shape"></path>
                    <path d="M13.8468338,21.8684832 C13.8605807,21.8686861 13.8763523,21.8680691 13.8913124,21.8682803 C15.2879538,21.86571 16.6275654,22.4220492 17.6114884,23.4132653 C18.5954114,24.4044814 19.1418428,25.7481648 19.1289588,27.1447491 C19.1258378,27.6021412 19.4940324,27.9754944 19.9514235,27.9787373 L19.9570838,27.9787373 C20.4121702,27.9787373 20.7820003,27.6115505 20.7852088,27.1564754 C20.8010798,25.3187096 20.0815416,23.5508763 18.7867886,22.2465567 C17.4920355,20.9422372 15.7295469,20.2097048 13.8917141,20.2120413 C13.8747375,20.2120413 13.8577609,20.2122498 13.8407844,20.2122498 C13.3834236,20.2139249 13.0140173,20.586047 13.0156867,21.0434078 C13.0173675,21.5007686 13.3894896,21.8701748 13.8468504,21.8684998 L13.8468338,21.8684832 Z" id="Path"></path>
                    <path d="M13.8233813,25.1504544 C13.8302487,25.1500469 13.8371342,25.1500469 13.8440016,25.1504544 C14.3784286,25.1481952 14.8914054,25.3605101 15.2679157,25.7397954 C15.6444259,26.1190807 15.8529683,26.6336027 15.8467847,27.1679988 C15.8451954,27.3876064 15.9309139,27.5988501 16.0850814,27.7552549 C16.239249,27.9116596 16.4492359,28.0004123 16.6688437,28.0019869 L16.6749097,28.0019869 C17.1299375,28.0018696 17.4996844,27.6347405 17.5030347,27.179725 C17.5122066,26.2041444 17.1305585,25.2654704 16.4432188,24.5730791 C15.7558791,23.8806878 14.8200249,23.4921764 13.8444033,23.4941965 L13.817717,23.4941965 C13.3603562,23.4957674 12.9908591,23.8677987 12.9924172,24.3251595 C12.9939851,24.7825203 13.3660164,25.1520174 13.8233772,25.1504544 L13.8233813,25.1504544 Z M7.453125,42.234375 C6.08104257,42.234375 4.96875,43.3466676 4.96875,44.71875 C4.96875,46.0908324 6.08104257,47.203125 7.453125,47.203125 C8.82520743,47.203125 9.9375,46.0908324 9.9375,44.71875 C9.93600299,43.3472881 8.82458686,42.235872 7.453125,42.234375 Z M7.453125,45.546875 C6.99576419,45.546875 6.625,45.1761108 6.625,44.71875 C6.625,44.2613892 6.99576419,43.890625 7.453125,43.890625 C7.91048581,43.890625 8.28125,44.2613892 8.28125,44.71875 C8.28072747,45.1758942 7.91026919,45.5463525 7.453125,45.546875 Z M14.078125,42.234375 C12.7060426,42.234375 11.59375,43.3466676 11.59375,44.71875 C11.59375,46.0908324 12.7060426,47.203125 14.078125,47.203125 C15.4502074,47.203125 16.5625,46.0908324 16.5625,44.71875 C16.561003,43.3472881 15.4495869,42.235872 14.078125,42.234375 Z M14.078125,45.546875 C13.6207642,45.546875 13.25,45.1761108 13.25,44.71875 C13.25,44.2613892 13.6207642,43.890625 14.078125,43.890625 C14.5354858,43.890625 14.90625,44.2613892 14.90625,44.71875 C14.9057275,45.1758942 14.5352692,45.5463525 14.078125,45.546875 Z M20.703125,42.234375 C19.3310426,42.234375 18.21875,43.3466676 18.21875,44.71875 C18.21875,46.0908324 19.3310426,47.203125 20.703125,47.203125 C22.0752074,47.203125 23.1875,46.0908324 23.1875,44.71875 C23.186003,43.3472881 22.0745869,42.235872 20.703125,42.234375 L20.703125,42.234375 Z M20.703125,45.546875 C20.2457642,45.546875 19.875,45.1761108 19.875,44.71875 C19.875,44.2613892 20.2457642,43.890625 20.703125,43.890625 C21.1604858,43.890625 21.53125,44.2613892 21.53125,44.71875 C21.5307275,45.1758942 21.1602692,45.5463525 20.703125,45.546875 Z" id="Shape"></path>
                </g>
            </g>
        </g>
    </g>
</svg>