<?xml version="1.0" encoding="UTF-8"?>
<svg width="21px" height="21px" viewBox="0 0 21 21" version="1.1" xmlns="http://www.w3.org/2000/svg" xmlns:xlink="http://www.w3.org/1999/xlink">
    <!-- Generator: Sketch 59.1 (86144) - https://sketch.com -->
    <title>Group 7</title>
    <desc>Created with Sketch.</desc>
    <g id="Page-1" stroke="none" stroke-width="1" fill="none" fill-rule="evenodd">
        <g id="Home-2" transform="translate(-703.000000, -3825.000000)">
            <g id="Group-9" transform="translate(704.000000, 3730.000000)">
                <g id="Group-7" transform="translate(0.000000, 96.000000)">
                    <path d="M9.49873822,6.62803794 C9.9645597,6.61048511 10.4310303,6.62337688 10.8951713,6.66663094 C11.1202834,6.66389093 11.3439138,6.7033805 11.5544729,6.78305314 C11.8449453,6.91843312 12.0783936,7.15187984 12.2137746,7.44235014 C12.293527,7.6531096 12.3330182,7.87696401 12.3301976,8.10229036 C12.3301976,8.45155696 12.3687908,8.56797917 12.3687908,9.49871357 C12.3863718,9.96474587 12.37348,10.431429 12.3301976,10.89578 C12.3329376,11.1208905 12.2934478,11.3445193 12.2137746,11.555077 C12.0782707,11.8453064 11.8448365,12.0785112 11.5544729,12.2137308 C11.3441156,12.2933242 11.1207108,12.3328125 10.8958145,12.330153 C10.5465454,12.330153 10.4301224,12.368746 9.49938144,12.368746 C9.03355996,12.3862988 8.56708934,12.373407 8.10294839,12.330153 C7.87783626,12.332893 7.6542059,12.2934034 7.44364674,12.2137308 C7.15269262,12.078597 6.91876025,11.8451219 6.78305865,11.5544338 C6.70346464,11.3440779 6.6639761,11.1206747 6.66663563,10.89578 C6.66663563,10.5465134 6.62804236,10.4300912 6.62804236,9.49935678 C6.61048941,9.03353859 6.62338127,8.56707125 6.66663563,8.10293357 C6.66389561,7.87782303 6.70338546,7.65419425 6.78305865,7.44363657 C6.85093848,7.30049651 6.94273436,7.16998197 7.05449797,7.05770662 C7.14503075,6.92250006 7.28257713,6.82575979 7.44043064,6.78626922 C7.6509898,6.70659658 7.87462016,6.66710701 8.09973228,6.66984702 C8.56465628,6.6254079 9.03199016,6.6114417 9.49873822,6.62803794 M9.49873822,6.00733393 C9.02070201,5.9902829 8.5420672,6.00317244 8.06564156,6.04592693 C7.77345027,6.04476225 7.48351276,6.09708143 7.21015748,6.20029891 C6.97376782,6.27601945 6.7595423,6.40852915 6.58623299,6.58622886 C6.40897476,6.75862592 6.27649376,6.97169804 6.20030032,7.20693287 C6.07789945,7.47576863 6.02482501,7.77099311 6.04592725,8.06562701 C6.00317246,8.54204929 5.99028283,9.02068073 6.00733399,9.49871357 C5.99020216,9.97738881 6.00309186,10.4566673 6.04592725,10.9337298 C6.04499787,11.2252708 6.0973136,11.5145312 6.20030032,11.7872782 C6.27649376,12.022513 6.40897476,12.2355851 6.58623299,12.4079822 C6.75863127,12.5852392 6.97170489,12.7177192 7.20694137,12.7939121 C7.48093477,12.8994928 7.77200959,12.9537828 8.06564156,12.9540731 C8.54270744,12.9969082 9.02198926,13.0097978 9.50066788,12.9926661 C9.9793465,13.0097978 10.4586283,12.9969082 10.9356942,12.9540731 C11.2272771,12.9547969 11.5165407,12.9022634 11.7892486,12.7990579 C12.2627109,12.6359547 12.634715,12.2639533 12.7978193,11.7904943 C12.9018507,11.5168604 12.9548275,11.2264709 12.9541221,10.9337298 C12.9541221,10.5477998 12.9927153,10.429448 12.9927153,9.49871357 C13.0097665,9.02068073 12.9968769,8.54204929 12.9541221,8.06562701 C12.9548459,7.77404617 12.902312,7.48478456 12.7991058,7.2120786 C12.72219,6.97447942 12.5878645,6.75951588 12.4080273,6.58622886 C12.2356291,6.40897188 12.0225554,6.27649181 11.787319,6.20029891 C11.51457,6.09731291 11.2253076,6.04499755 10.9337645,6.04592693 C10.4566987,6.00309184 9.97741683,5.99020223 9.49873822,6.00733393 M9.49873822,7.71443076 C9.02318654,7.70670243 8.56483984,7.89220608 8.22852963,8.22851393 C7.89221941,8.56482177 7.70671446,9.02316524 7.71444283,9.49871357 C7.71444283,10.4841458 8.51329909,11.2829964 9.49873822,11.2829964 C10.4841773,11.2829964 11.2830336,10.4841458 11.2830336,9.49871357 C11.2830336,8.51328138 10.4841773,7.71443076 9.49873822,7.71443076 M9.49873822,10.6629356 C9.18832743,10.6685808 8.88897458,10.5477144 8.66950538,10.3281255 C8.45003618,10.1085365 8.32933441,9.809119 8.33515121,9.49871357 C8.32951125,9.18841866 8.45029113,8.88916962 8.66974055,8.66972174 C8.88918997,8.45027387 9.18844112,8.32949483 9.49873822,8.33513476 C9.80903531,8.32949483 10.1082865,8.45027387 10.3277359,8.66972174 C10.5471853,8.88916962 10.6679652,9.18841866 10.6623252,9.49871357 C10.6679652,9.80900847 10.5471853,10.1082575 10.3277359,10.3277054 C10.1082865,10.5471533 9.80903531,10.6679323 9.49873822,10.6622924 M11.3608634,7.21014895 C11.1253384,7.21014895 10.9344078,7.40107828 10.9344078,7.63660155 C10.9344078,7.87212481 11.1253384,8.06305415 11.3608634,8.06305415 C11.5963883,8.06305415 11.787319,7.87212481 11.787319,7.63660155 C11.7852237,7.40195163 11.5955149,7.21224416 11.3608634,7.21014895" id="Path_3" fill="#DAA519" fill-rule="nonzero"></path>
                    <circle id="Oval" stroke="#976502" cx="9.5" cy="9.5" r="9.5"></circle>
                </g>
            </g>
        </g>
    </g>
</svg>