
<svg xmlns="http://www.w3.org/2000/svg" width="20" height="20" viewBox="0 0 20 20">
  <g id="Light" transform="translate(0 0)">
    <path id="Shape" d="M10,20a.918.918,0,0,1-.8-1V18a.918.918,0,0,1,.8-1,.918.918,0,0,1,.8,1v1A.918.918,0,0,1,10,20ZM17,17.7a1.1,1.1,0,0,1-.765-.34l-.7-.7A1.139,1.139,0,0,1,15.2,16a.721.721,0,0,1,.192-.607.7.7,0,0,1,.507-.2,1.109,1.109,0,0,1,.767.34l.7.7A1.1,1.1,0,0,1,17.7,17,.678.678,0,0,1,17,17.7Zm-14,0a.71.71,0,0,1-.509-.2.7.7,0,0,1-.2-.507,1.1,1.1,0,0,1,.341-.764l.7-.7a1.109,1.109,0,0,1,.767-.34.7.7,0,0,1,.506.2.922.922,0,0,1-.142,1.274l-.7.7A1.1,1.1,0,0,1,3,17.7Zm7-2.2a5.5,5.5,0,1,1-.017-11H10a5.5,5.5,0,1,1,0,11ZM10,6a4,4,0,1,0,4,4A4,4,0,0,0,10,6Zm9,4.8h-.98a.918.918,0,0,1-1-.8.918.918,0,0,1,1-.8H19a.918.918,0,0,1,1,.8A.918.918,0,0,1,19,10.8Zm-17,0H1A.918.918,0,0,1,0,10a.918.918,0,0,1,1-.8H2A.918.918,0,0,1,3,10,.918.918,0,0,1,2,10.8ZM15.9,4.806a.7.7,0,0,1-.507-.2.919.919,0,0,1,.142-1.273l.7-.7A1.1,1.1,0,0,1,17,2.295a.679.679,0,0,1,.7.706,1.1,1.1,0,0,1-.341.765l-.7.7A1.105,1.105,0,0,1,15.9,4.806Zm-11.8,0a1.107,1.107,0,0,1-.766-.341l-.7-.7a.919.919,0,0,1-.141-1.274A.7.7,0,0,1,3,2.294a1.1,1.1,0,0,1,.766.341l.7.7a.919.919,0,0,1,.141,1.273A.7.7,0,0,1,4.1,4.806ZM10,3a.918.918,0,0,1-.8-1V1A.918.918,0,0,1,10,0a.918.918,0,0,1,.8,1V2A.918.918,0,0,1,10,3Z"/>
  </g>
</svg>
