<?xml version="1.0" encoding="UTF-8"?>
<svg width="18px" height="14px" viewBox="0 0 18 14" version="1.1" xmlns="http://www.w3.org/2000/svg" xmlns:xlink="http://www.w3.org/1999/xlink">
    <!-- Generator: Sketch 59.1 (86144) - https://sketch.com -->
    <title>Light</title>
    <desc>Created with Sketch.</desc>
    <g id="Page-1" stroke="none" stroke-width="1" fill="none" fill-rule="evenodd">
        <g id="Menu-White" transform="translate(-214.000000, -27.000000)" fill="#DAA519" fill-rule="nonzero">
            <g id="Group-3" transform="translate(214.000000, 26.000000)">
                <g id="Group-26">
                    <g id="Light">
                        <g id="Weather" transform="translate(0.000000, 0.666667)">
                            <path d="M11.7016667,14.19 C10.7216667,14.19 9.77666667,13.9583333 8.89333333,13.5033333 C8.11,13.085 7.425,12.5083333 6.905,11.8316667 C6.76166667,11.6466667 6.74333333,11.395 6.85833333,11.19 C6.97166667,10.9866667 7.19666667,10.8783333 7.43166667,10.895 C9.41833333,11.1183333 11.3466667,10.0683333 12.2816667,8.28333333 C13.1416667,6.56166667 12.9266667,4.47666667 11.7266667,2.98166667 C11.5816667,2.80166667 11.5583333,2.55333333 11.665,2.34833333 C11.7716667,2.14333333 12.0216667,2.02333333 12.22,2.035 C12.965,2.08333333 13.75,2.31833333 14.4883333,2.715 C15.925,3.47166667 16.9916667,4.735 17.4866667,6.27333333 C17.985,7.82333333 17.8433333,9.46666667 17.0866667,10.9 C16.0533333,12.9266667 13.99,14.19 11.7016667,14.19 Z M8.75833333,12.0366667 C8.97166667,12.1983333 9.19833333,12.3433333 9.435,12.47 C10.1433333,12.835 10.9083333,13.0233333 11.7,13.0233333 C13.5466667,13.0233333 15.2133333,12.0033333 16.0483333,10.3633333 C16.66,9.20166667 16.775,7.87833333 16.3733333,6.63 C15.9716667,5.385 15.1066667,4.36 13.9383333,3.745 C13.7616667,3.65 13.5816667,3.56833333 13.4033333,3.49666667 C14.1716667,5.16 14.1616667,7.125 13.3166667,8.81666667 C12.385,10.595 10.6866667,11.7783333 8.75833333,12.0366667 Z" id="Shape"></path>
                            <path d="M2.55333333,9.13833333 C2.445,9.13833333 2.33333333,9.10666667 2.23833333,9.045 C2.05333333,8.92666667 1.95,8.71166667 1.975,8.49333333 L2.225,6.11166667 L0.426666667,4.56666667 C0.258333333,4.42166667 0.186666667,4.195 0.243333333,3.98 C0.296666667,3.765 0.47,3.6 0.686666667,3.55333333 L3.03,3.05166667 L3.95166667,0.835 C4.03666667,0.631666667 4.23333333,0.491666667 4.455,0.478333333 C4.675,0.478333333 4.89,0.58 4.99833333,0.775 L6.16833333,2.86333333 L8.55,3.07166667 C8.77,3.09166667 8.96,3.23166667 9.04166667,3.43666667 C9.12333333,3.64166667 9.08166667,3.87333333 8.93666667,4.03833333 L7.345,5.83833333 L7.85,7.96666667 C7.90333333,8.055 7.935,8.15833333 7.935,8.27 C7.935,8.59666667 7.665,8.84333333 7.33833333,8.85333333 C7.25,8.85333333 7.16833333,8.84 7.08833333,8.80333333 L4.90833333,7.84 L2.85,9.05666667 C2.75833333,9.11 2.655,9.13833333 2.55333333,9.13833333 Z M2.08166667,4.45 L3.21833333,5.425 C3.36333333,5.55 3.43833333,5.73833333 3.41666667,5.92833333 L3.255,7.46166667 L4.57166667,6.685 C4.735,6.58833333 4.93333333,6.57833333 5.10333333,6.65333333 L6.48333333,7.26333333 L6.13833333,5.815 C6.095,5.63 6.14333333,5.435 6.27,5.29333333 L7.295,4.13333333 L5.76,3.99833333 C5.56833333,3.98166667 5.395,3.87 5.30166667,3.70333333 L4.56833333,2.39333333 L3.99,3.78333333 C3.91666667,3.96 3.76,4.09 3.57333333,4.13 L2.08166667,4.45 Z" id="Shape"></path>
                        </g>
                    </g>
                </g>
            </g>
        </g>
    </g>
</svg>