<?xml version="1.0" encoding="UTF-8"?>
<svg width="18px" height="14px" viewBox="0 0 18 14" version="1.1" xmlns="http://www.w3.org/2000/svg" xmlns:xlink="http://www.w3.org/1999/xlink">
    <!-- Generator: Sketch 59.1 (86144) - https://sketch.com -->
    <title>Light</title>
    <desc>Created with Sketch.</desc>
    <g id="Page-1" stroke="none" stroke-width="1" fill="none" fill-rule="evenodd">
        <g id="login-copy" transform="translate(-1283.000000, -945.000000)" fill="#010101" fill-rule="nonzero">
            <g id="Group-3" transform="translate(1225.000000, 928.000000)">
                <g id="Group-26" transform="translate(57.000000, 15.000000)">
                    <g id="Light">
                        <g id="Weather" transform="translate(0.000000, 0.666667)">
                            <path d="M12.7016667,15.19 C11.7216667,15.19 10.7766667,14.9583333 9.89333333,14.5033333 C9.11,14.085 8.425,13.5083333 7.905,12.8316667 C7.76166667,12.6466667 7.74333333,12.395 7.85833333,12.19 C7.97166667,11.9866667 8.19666667,11.8783333 8.43166667,11.895 C10.4183333,12.1183333 12.3466667,11.0683333 13.2816667,9.28333333 C14.1416667,7.56166667 13.9266667,5.47666667 12.7266667,3.98166667 C12.5816667,3.80166667 12.5583333,3.55333333 12.665,3.34833333 C12.7716667,3.14333333 13.0216667,3.02333333 13.22,3.035 C13.965,3.08333333 14.75,3.31833333 15.4883333,3.715 C16.925,4.47166667 17.9916667,5.735 18.4866667,7.27333333 C18.985,8.82333333 18.8433333,10.4666667 18.0866667,11.9 C17.0533333,13.9266667 14.99,15.19 12.7016667,15.19 Z M9.75833333,13.0366667 C9.97166667,13.1983333 10.1983333,13.3433333 10.435,13.47 C11.1433333,13.835 11.9083333,14.0233333 12.7,14.0233333 C14.5466667,14.0233333 16.2133333,13.0033333 17.0483333,11.3633333 C17.66,10.2016667 17.775,8.87833333 17.3733333,7.63 C16.9716667,6.385 16.1066667,5.36 14.9383333,4.745 C14.7616667,4.65 14.5816667,4.56833333 14.4033333,4.49666667 C15.1716667,6.16 15.1616667,8.125 14.3166667,9.81666667 C13.385,11.595 11.6866667,12.7783333 9.75833333,13.0366667 Z" id="Shape"></path>
                            <path d="M3.55333333,10.1383333 C3.445,10.1383333 3.33333333,10.1066667 3.23833333,10.045 C3.05333333,9.92666667 2.95,9.71166667 2.975,9.49333333 L3.225,7.11166667 L1.42666667,5.56666667 C1.25833333,5.42166667 1.18666667,5.195 1.24333333,4.98 C1.29666667,4.765 1.47,4.6 1.68666667,4.55333333 L4.03,4.05166667 L4.95166667,1.835 C5.03666667,1.63166667 5.23333333,1.49166667 5.455,1.47833333 C5.675,1.47833333 5.89,1.58 5.99833333,1.775 L7.16833333,3.86333333 L9.55,4.07166667 C9.77,4.09166667 9.96,4.23166667 10.0416667,4.43666667 C10.1233333,4.64166667 10.0816667,4.87333333 9.93666667,5.03833333 L8.345,6.83833333 L8.85,8.96666667 C8.90333333,9.055 8.935,9.15833333 8.935,9.27 C8.935,9.59666667 8.665,9.84333333 8.33833333,9.85333333 C8.25,9.85333333 8.16833333,9.84 8.08833333,9.80333333 L5.90833333,8.84 L3.85,10.0566667 C3.75833333,10.11 3.655,10.1383333 3.55333333,10.1383333 Z M3.08166667,5.45 L4.21833333,6.425 C4.36333333,6.55 4.43833333,6.73833333 4.41666667,6.92833333 L4.255,8.46166667 L5.57166667,7.685 C5.735,7.58833333 5.93333333,7.57833333 6.10333333,7.65333333 L7.48333333,8.26333333 L7.13833333,6.815 C7.095,6.63 7.14333333,6.435 7.27,6.29333333 L8.295,5.13333333 L6.76,4.99833333 C6.56833333,4.98166667 6.395,4.87 6.30166667,4.70333333 L5.56833333,3.39333333 L4.99,4.78333333 C4.91666667,4.96 4.76,5.09 4.57333333,5.13 L3.08166667,5.45 Z" id="Shape"></path>
                        </g>
                    </g>
                </g>
            </g>
        </g>
    </g>
</svg>