<?xml version="1.0" encoding="UTF-8"?>
<svg width="20px" height="20px" viewBox="0 0 20 20" version="1.1" xmlns="http://www.w3.org/2000/svg" xmlns:xlink="http://www.w3.org/1999/xlink">
    <!-- Generator: Sketch 59.1 (86144) - https://sketch.com -->
    <title>Group_340</title>
    <desc>Created with Sketch.</desc>
    <g id="Page-1" stroke="none" stroke-width="1" fill="none" fill-rule="evenodd">
        <g id="Home-2" transform="translate(-751.000000, -3825.000000)">
            <g id="Group-9" transform="translate(704.000000, 3730.000000)">
                <g id="Group_340" transform="translate(48.000000, 96.000000)">
                    <circle id="Oval" stroke="#976502" cx="9.33489655" cy="9.33489655" r="9.00731034"></circle>
                    <path d="M5,5.88545689 C5,5.37065637 5.32189349,5 5.78579882,5 C6.24970414,5 6.57159763,5.37065637 6.57159763,5.88545689 C6.57159763,6.4002574 6.24970414,6.77091377 5.78579882,6.77091377 C5.32189349,6.77091377 5,6.4002574 5,5.88545689 Z M5.05680473,13 L5.05680473,7.46074646 L6.5147929,7.46074646 L6.5147929,13 L5.05680473,13 Z M7.91597633,13 L7.91597633,7.46074646 L9.3739645,7.46074646 L9.3739645,8.42857143 C9.73372781,7.73873874 10.339645,7.40926641 11.1349112,7.3989704 C12.2710059,7.3989704 13,8.22265122 13,9.51994852 L13,13 L11.5420118,13 L11.5420118,9.98326898 C11.5420118,9.28314028 11.1633136,8.85070785 10.5384615,8.85070785 C9.80946746,8.86100386 9.3739645,9.45817246 9.3739645,10.2715573 L9.3739645,13 L7.91597633,13 Z" id="in" fill="#DAA519" fill-rule="nonzero"></path>
                </g>
            </g>
        </g>
    </g>
</svg>