<?xml version="1.0" encoding="UTF-8"?>
<svg width="21px" height="33px" viewBox="0 0 21 33" version="1.1" xmlns="http://www.w3.org/2000/svg" xmlns:xlink="http://www.w3.org/1999/xlink">
    <!-- Generator: Sketch 59.1 (86144) - https://sketch.com -->
    <title>Phone</title>
    <desc>Created with Sketch.</desc>
    <g id="Page-1" stroke="none" stroke-width="1" fill="none" fill-rule="evenodd">
        <g id="Menu-White" transform="translate(-362.000000, -24.000000)" fill="#DAA519" fill-rule="nonzero" stroke="#E9E9E9">
            <g id="Phone" transform="translate(363.000000, 25.000000)">
                <path d="M3.41913992,0.000756797093 C1.74113551,0.000756797093 0.341459576,1.40043249 0.341459576,3.0784376 L0.341459576,27.688522 C0.341459576,29.3665264 1.74113551,30.7662017 3.41913992,30.7662017 L15.7185041,30.7662017 C17.3965085,30.7662017 18.796185,29.3665264 18.796185,27.688522 L18.796185,3.0784376 C18.796185,1.40043249 17.3965085,0.000756797093 15.7185041,0.000756797093 L3.41913992,0.000756797093 Z M3.41913992,3.0784376 L15.7185041,3.0784376 L15.7185041,27.688522 L3.41913992,27.688522 L3.41913992,3.0784376 Z" id="Shape"></path>
                <path d="M7.88234389,23.0776803 C7.03260124,23.1186231 6.37688457,23.8405737 6.41764815,24.6903249 C6.45841172,25.5400762 7.18022402,26.1959451 8.02998386,26.1553607 L11.1076642,26.1553607 C11.9575422,26.1553607 12.6465044,25.4663985 12.6465044,24.6165205 C12.6465044,23.7666426 11.9575422,23.0776803 11.1076642,23.0776803 L8.02998154,23.0776803 C7.98079657,23.0753178 7.93152653,23.0753178 7.88234156,23.0776803 L7.88234389,23.0776803 Z" id="Path" stroke-width="2"></path>
            </g>
        </g>
    </g>
</svg>