<?xml version="1.0" encoding="UTF-8"?>
<svg width="21px" height="21px" viewBox="0 0 21 21" version="1.1" xmlns="http://www.w3.org/2000/svg" xmlns:xlink="http://www.w3.org/1999/xlink">
    <!-- Generator: Sketch 59.1 (86144) - https://sketch.com -->
    <title>Ellipse_2</title>
    <desc>Created with Sketch.</desc>
    <g id="Page-1" stroke="none" stroke-width="1" fill="none" fill-rule="evenodd">
        <g id="Home-2" transform="translate(-775.000000, -3825.000000)">
            <g id="Group-9" transform="translate(704.000000, 3730.000000)">
                <g id="Ellipse_2" transform="translate(72.000000, 96.000000)">
                    <circle id="Oval" stroke="#976502" cx="9.5" cy="9.5" r="9.5"></circle>
                    <path d="M6.10243056,5.60471802 C7.14943692,6.91510704 8.70272157,7.73826692 10.390625,7.87723751 C10.2366832,7.23949482 10.3926101,6.56755769 10.8125993,6.05882081 C11.2325886,5.55008393 11.8689434,5.26232261 12.5347222,5.28007238 C13.1540148,5.25164598 13.7554939,5.48843358 14.1840278,5.92936367 C14.6670277,5.91798446 15.1319658,5.74638937 15.5034722,5.4423952 C15.3675693,5.90227725 15.0767551,6.30297985 14.6788194,6.57865495 C15.0872192,6.58086519 15.4877653,6.46823289 15.8333333,6.25400931 C15.6158172,6.76779399 15.2008581,7.1761921 14.6788194,7.39026905 C14.7684927,9.01079344 14.1879885,10.598056 13.0695057,11.7905875 C11.951023,12.983119 10.3897796,13.6793977 8.74131944,13.7208591 C7.51353289,13.7466037 6.30641863,13.407167 5.27777778,12.7469221 C6.37756638,12.7592589 7.46029946,12.4788342 8.41145833,11.935308 C7.54630329,11.801716 6.80484374,11.2544138 6.43229167,10.4744026 C6.76966449,10.4830713 7.10559516,10.4279681 7.421875,10.3120798 C6.45542604,10.0101401 5.75023371,9.18990815 5.60763889,8.20188316 C5.91226623,8.3738233 6.24869893,8.4841944 6.59722222,8.5265288 C5.72142163,7.80669461 5.51118083,6.56519465 6.10243056,5.60471802" id="Path" fill="#DAA519" fill-rule="nonzero"></path>
                </g>
            </g>
        </g>
    </g>
</svg>