<?xml version="1.0" encoding="UTF-8"?>
<svg width="16px" height="22px" viewBox="0 0 16 22" version="1.1" xmlns="http://www.w3.org/2000/svg" xmlns:xlink="http://www.w3.org/1999/xlink">
    <!-- Generator: Sketch 59.1 (86144) - https://sketch.com -->
    <title>User</title>
    <desc>Created with Sketch.</desc>
    <g id="Page-1" stroke="none" stroke-width="1" fill="none" fill-rule="evenodd">
        <g id="Home" transform="translate(-1296.000000, -2649.000000)" fill="#000000" fill-rule="nonzero">
            <g id="User" transform="translate(1296.000000, 2649.000000)">
                <path d="M8,9.42857143 C10.6509668,9.42857143 12.8,7.31791382 12.8,4.71428571 C12.8,2.11065761 10.6509668,0 8,0 C5.3490332,0 3.2,2.11065761 3.2,4.71428571 C3.2,7.31791382 5.3490332,9.42857143 8,9.42857143 Z M8,1.57142857 C9.7673112,1.57142857 11.2,2.97853364 11.2,4.71428571 C11.2,6.45003779 9.7673112,7.85714286 8,7.85714286 C6.2326888,7.85714286 4.8,6.45003779 4.8,4.71428571 C4.8,2.97853364 6.2326888,1.57142857 8,1.57142857 Z M8,11 C3.581722,11 0,14.5177627 0,18.8571429 L0,21.2142857 C0,21.6482237 0.358172209,22 0.8,22 C1.24182779,22 1.59999999,21.6482237 1.6,21.2142857 L1.6,18.8571429 C1.6,15.3856387 4.4653776,12.5714286 8,12.5714286 C11.5346224,12.5714286 14.4,15.3856387 14.4,18.8571429 L14.4,21.2142857 C14.4,21.6482237 14.7581722,22 15.2,22 C15.6418278,22 16,21.6482237 16,21.2142857 L16,18.8571429 C16,14.5177627 12.418278,11 8,11 Z" id="Shape"></path>
            </g>
        </g>
    </g>
</svg>