<?xml version="1.0" encoding="UTF-8"?>
<svg width="15px" height="21px" viewBox="0 0 15 21" version="1.1" xmlns="http://www.w3.org/2000/svg" xmlns:xlink="http://www.w3.org/1999/xlink">
    <!-- Generator: Sketch 59.1 (86144) - https://sketch.com -->
    <title>User</title>
    <desc>Created with Sketch.</desc>
    <g id="Page-1" stroke="none" stroke-width="1" fill="none" fill-rule="evenodd">
        <g id="Home" transform="translate(-1190.000000, -43.000000)" fill="#DAA519" fill-rule="nonzero">
            <g id="Group-13" transform="translate(1190.000000, 43.000000)">
                <g id="User">
                    <path d="M7.5,9 C9.98528137,9 12,6.98528137 12,4.5 C12,2.01471863 9.98528137,0 7.5,0 C5.01471863,0 3,2.01471863 3,4.5 C3,6.98528137 5.01471863,9 7.5,9 Z M7.5,1.5 C9.15685425,1.5 10.5,2.84314575 10.5,4.5 C10.5,6.15685425 9.15685425,7.5 7.5,7.5 C5.84314575,7.5 4.5,6.15685425 4.5,4.5 C4.5,2.84314575 5.84314575,1.5 7.5,1.5 Z M7.5,10.5 C3.35786438,10.5 0,13.8578644 0,18 L0,20.25 C0,20.6642136 0.335786446,21 0.75,21 C1.16421355,21 1.5,20.6642136 1.5,20.25 L1.5,18 C1.5,14.6862915 4.1862915,12 7.5,12 C10.8137085,12 13.5,14.6862915 13.5,18 L13.5,20.25 C13.5,20.6642136 13.8357864,21 14.25,21 C14.6642136,21 15,20.6642136 15,20.25 L15,18 C15,13.8578644 11.6421356,10.5 7.5,10.5 Z" id="Shape"></path>
                </g>
            </g>
        </g>
    </g>
</svg>