<?xml version="1.0" encoding="UTF-8"?>
<svg width="12px" height="12px" viewBox="0 0 12 12" version="1.1" xmlns="http://www.w3.org/2000/svg" xmlns:xlink="http://www.w3.org/1999/xlink">
    <!-- Generator: Sketch 59.1 (86144) - https://sketch.com -->
    <title>Whatsapp</title>
    <desc>Created with Sketch.</desc>
    <g id="Page-1" stroke="none" stroke-width="1" fill="none" fill-rule="evenodd">
        <g id="Home-2" transform="translate(-704.000000, -3770.000000)" fill-rule="nonzero">
            <g id="Group-9" transform="translate(704.000000, 3730.000000)">
                <g id="Whatsapp" transform="translate(0.000000, 40.000000)">
                    <path d="M8.74734746,7.55211626 C8.6202962,7.48604109 8.02202526,7.16207855 7.9109857,7.11402388 C7.78881301,7.07811837 7.71150646,7.04794871 7.6284457,7.18601556 C7.55072219,7.31812074 7.31254797,7.61195878 7.24095394,7.69596412 C7.16873445,7.79211863 7.09651496,7.79812546 6.98051344,7.7378313 C6.84770796,7.67202712 6.45408672,7.53396027 5.98887143,7.07816354 C5.61776665,6.72389584 5.36854269,6.29804295 5.30203571,6.1719446 C5.23552873,6.02796125 5.29061069,5.9681639 5.35173873,5.89007506 C5.41269999,5.83610389 5.47899848,5.74604655 5.54016823,5.66190571 C5.556722,5.64415619 5.57331747,5.6260002 5.58436722,5.60197287 C5.61772496,5.54791136 5.63407025,5.50590869 5.66188226,5.44597585 C5.70608125,5.35600883 5.68952748,5.27796516 5.65083251,5.21794199 C5.62873301,5.15191198 5.37955074,4.49197323 5.27397352,4.23381487 C5.17452578,3.96409449 5.06899025,4.01187817 5.00290024,4.01187817 C4.92496824,4.01187817 4.84761999,4 4.76455924,4 C4.67557749,4 4.54848452,4.02994384 4.43782024,4.16801069 C4.31568925,4.29998037 4,4.61206474 4,5.271868 C4,5.42190335 4.02764522,5.57790037 4.07201101,5.71610271 C4.18842949,6.19005543 4.46525698,6.56803431 4.50428553,6.63415465 C4.56524678,6.72389584 5.35169704,8.098151 6.60340427,8.6260749 C7.8610325,9.15413429 7.8610325,8.97397445 8.08261124,8.95604428 C8.30418998,8.9381141 8.80826702,8.64405024 8.91367746,8.32604936 C9.01333368,8.02001699 9.01333368,7.75630345 8.98018444,7.69605445 C8.95233073,7.65405178 8.86931167,7.61191362 8.74734746,7.55211626 Z" id="Path" fill="#DAA519"></path>
                    <path d="M6.36421602,0.872552383 C3.46683609,0.872552383 1.09946742,3.13447688 0.980360744,5.99340857 C0.968468027,6.06506381 0.968468027,6.14857922 0.968468027,6.2260747 C0.968468027,7.2349535 1.25452152,8.18390246 1.74355901,8.99551596 L0.765663549,11.8725524 L3.75858912,10.9233788 C4.5336801,11.3470657 5.42217823,11.5859764 6.36421602,11.5859764 C9.34547327,11.5859764 11.7656635,9.19260156 11.7656635,6.2260747 C11.7656635,6.17854414 11.7599191,6.14255929 11.7599191,6.09489395 C11.6824145,3.19427195 9.29745362,0.872552383 6.36421602,0.872552383 L6.36421602,0.872552383 Z M6.36421602,10.7381983 C5.44596366,10.7381983 4.58762366,10.463752 3.87199627,9.99226503 L2.13112694,10.5473123 L2.69152072,8.8700856 C2.12955878,8.10332899 1.8266896,7.177061 1.82698732,6.2260747 C1.82698732,6.07696891 1.83295633,5.93963345 1.85077297,5.79039288 C2.07736288,3.50465818 4.01488838,1.72019566 6.36417115,1.72019566 C8.74890767,1.72019566 10.710443,3.55236844 10.8892376,5.87404307 C10.9013548,5.99340857 10.9013548,6.11272914 10.9013548,6.2260747 C10.9013548,8.70893993 8.86828362,10.7381983 6.36421602,10.7381983 L6.36421602,10.7381983 Z" id="Shape" fill="#976502"></path>
                </g>
            </g>
        </g>
    </g>
</svg>